<svg width="428" height="1511" viewBox="0 0 428 1511" fill="none" xmlns="http://www.w3.org/2000/svg">
<path d="M50.8338 293.5H26.0838V223.682H51.0384C58.0611 223.682 64.1065 225.08 69.1747 227.875C74.2429 230.648 78.1406 234.636 80.8679 239.841C83.6179 245.045 84.9929 251.273 84.9929 258.523C84.9929 265.795 83.6179 272.045 80.8679 277.273C78.1406 282.5 74.2202 286.511 69.1065 289.307C64.0156 292.102 57.9247 293.5 50.8338 293.5ZM40.8452 280.852H50.2202C54.5838 280.852 58.2543 280.08 61.2315 278.534C64.2315 276.966 66.4815 274.545 67.9815 271.273C69.5043 267.977 70.2656 263.727 70.2656 258.523C70.2656 253.364 69.5043 249.148 67.9815 245.875C66.4815 242.602 64.2429 240.193 61.2656 238.648C58.2884 237.102 54.6179 236.33 50.2543 236.33H40.8452V280.852Z" fill="#19EFFD"/>
<path d="M50.8338 459.167H26.0838V389.348H51.0384C58.0611 389.348 64.1065 390.746 69.1747 393.542C74.2429 396.314 78.1406 400.303 80.8679 405.507C83.6179 410.712 84.9929 416.939 84.9929 424.189C84.9929 431.462 83.6179 437.712 80.8679 442.939C78.1406 448.167 74.2202 452.178 69.1065 454.973C64.0156 457.769 57.9247 459.167 50.8338 459.167ZM40.8452 446.519H50.2202C54.5838 446.519 58.2543 445.746 61.2315 444.201C64.2315 442.632 66.4815 440.212 67.9815 436.939C69.5043 433.644 70.2656 429.394 70.2656 424.189C70.2656 419.03 69.5043 414.814 67.9815 411.542C66.4815 408.269 64.2429 405.86 61.2656 404.314C58.2884 402.769 54.6179 401.996 50.2543 401.996H40.8452V446.519ZM95.9276 459.167V389.348H142.973V401.519H110.689V418.155H140.553V430.326H110.689V446.996H143.109V459.167H95.9276Z" fill="#19EFFD"/>
<path d="M50.8338 624.833H26.0838V555.015H51.0384C58.0611 555.015 64.1065 556.413 69.1747 559.208C74.2429 561.981 78.1406 565.97 80.8679 571.174C83.6179 576.379 84.9929 582.606 84.9929 589.856C84.9929 597.129 83.6179 603.379 80.8679 608.606C78.1406 613.833 74.2202 617.845 69.1065 620.64C64.0156 623.436 57.9247 624.833 50.8338 624.833ZM40.8452 612.186H50.2202C54.5838 612.186 58.2543 611.413 61.2315 609.867C64.2315 608.299 66.4815 605.879 67.9815 602.606C69.5043 599.311 70.2656 595.061 70.2656 589.856C70.2656 584.697 69.5043 580.481 67.9815 577.208C66.4815 573.936 64.2429 571.526 61.2656 569.981C58.2884 568.436 54.6179 567.663 50.2543 567.663H40.8452V612.186ZM95.9276 624.833V555.015H142.973V567.186H110.689V583.822H140.553V595.992H110.689V612.663H143.109V624.833H95.9276ZM154.709 624.833V555.015H182.254C187.55 555.015 192.061 556.026 195.788 558.049C199.516 560.049 202.357 562.833 204.311 566.401C206.288 569.947 207.277 574.038 207.277 578.674C207.277 583.311 206.277 587.401 204.277 590.947C202.277 594.492 199.379 597.254 195.584 599.231C191.811 601.208 187.243 602.197 181.879 602.197H164.322V590.367H179.493C182.334 590.367 184.675 589.879 186.516 588.901C188.379 587.901 189.766 586.526 190.675 584.776C191.607 583.004 192.072 580.97 192.072 578.674C192.072 576.356 191.607 574.333 190.675 572.606C189.766 570.856 188.379 569.504 186.516 568.549C184.652 567.572 182.288 567.083 179.425 567.083H169.47V624.833H154.709Z" fill="#19EFFD"/>
<path d="M50.9744 790.5H26.2244V720.682H51.179C58.2017 720.682 64.2472 722.08 69.3153 724.875C74.3835 727.648 78.2813 731.636 81.0085 736.841C83.7585 742.045 85.1335 748.273 85.1335 755.523C85.1335 762.795 83.7585 769.045 81.0085 774.273C78.2813 779.5 74.3608 783.511 69.2472 786.307C64.1562 789.102 58.0653 790.5 50.9744 790.5ZM40.9858 777.852H50.3608C54.7244 777.852 58.3949 777.08 61.3722 775.534C64.3722 773.966 66.6222 771.545 68.1222 768.273C69.6449 764.977 70.4062 760.727 70.4062 755.523C70.4062 750.364 69.6449 746.148 68.1222 742.875C66.6222 739.602 64.3835 737.193 61.4062 735.648C58.429 734.102 54.7585 733.33 50.3949 733.33H40.9858V777.852ZM96.0682 790.5V720.682H143.114V732.852H110.83V749.489H140.693V761.659H110.83V778.33H143.25V790.5H96.0682ZM154.849 790.5V720.682H182.395C187.69 720.682 192.202 721.693 195.929 723.716C199.656 725.716 202.497 728.5 204.452 732.068C206.429 735.614 207.418 739.705 207.418 744.341C207.418 748.977 206.418 753.068 204.418 756.614C202.418 760.159 199.52 762.92 195.724 764.898C191.952 766.875 187.384 767.864 182.02 767.864H164.463V756.034H179.634C182.474 756.034 184.815 755.545 186.656 754.568C188.52 753.568 189.906 752.193 190.815 750.443C191.747 748.67 192.213 746.636 192.213 744.341C192.213 742.023 191.747 740 190.815 738.273C189.906 736.523 188.52 735.17 186.656 734.216C184.793 733.239 182.429 732.75 179.565 732.75H169.611V790.5H154.849ZM217.006 790.5V720.682H231.767V778.33H261.699V790.5H217.006Z" fill="#19EFFD"/>
<path d="M51.2244 956.167H26.4744V886.349H51.429C58.4517 886.349 64.4972 887.747 69.5653 890.542C74.6335 893.315 78.5313 897.303 81.2585 902.508C84.0085 907.712 85.3835 913.94 85.3835 921.19C85.3835 928.462 84.0085 934.712 81.2585 939.94C78.5313 945.167 74.6108 949.178 69.4972 951.974C64.4062 954.769 58.3153 956.167 51.2244 956.167ZM41.2358 943.519H50.6108C54.9744 943.519 58.6449 942.747 61.6222 941.201C64.6222 939.633 66.8722 937.212 68.3722 933.94C69.8949 930.644 70.6562 926.394 70.6562 921.19C70.6562 916.031 69.8949 911.815 68.3722 908.542C66.8722 905.269 64.6335 902.86 61.6562 901.315C58.679 899.769 55.0085 898.997 50.6449 898.997H41.2358V943.519ZM96.3182 956.167V886.349H143.364V898.519H111.08V915.156H140.943V927.326H111.08V943.997H143.5V956.167H96.3182ZM155.099 956.167V886.349H182.645C187.94 886.349 192.452 887.36 196.179 889.383C199.906 891.383 202.747 894.167 204.702 897.735C206.679 901.281 207.668 905.372 207.668 910.008C207.668 914.644 206.668 918.735 204.668 922.281C202.668 925.826 199.77 928.587 195.974 930.565C192.202 932.542 187.634 933.531 182.27 933.531H164.713V921.701H179.884C182.724 921.701 185.065 921.212 186.906 920.235C188.77 919.235 190.156 917.86 191.065 916.11C191.997 914.337 192.463 912.303 192.463 910.008C192.463 907.69 191.997 905.667 191.065 903.94C190.156 902.19 188.77 900.837 186.906 899.883C185.043 898.906 182.679 898.417 179.815 898.417H169.861V956.167H155.099ZM217.256 956.167V886.349H232.017V943.997H261.949V956.167H217.256ZM333.165 921.258C333.165 928.872 331.722 935.349 328.835 940.69C325.972 946.031 322.063 950.11 317.108 952.928C312.176 955.724 306.631 957.122 300.472 957.122C294.267 957.122 288.699 955.712 283.767 952.894C278.835 950.076 274.938 945.997 272.074 940.656C269.21 935.315 267.778 928.849 267.778 921.258C267.778 913.644 269.21 907.167 272.074 901.826C274.938 896.485 278.835 892.417 283.767 889.622C288.699 886.803 294.267 885.394 300.472 885.394C306.631 885.394 312.176 886.803 317.108 889.622C322.063 892.417 325.972 896.485 328.835 901.826C331.722 907.167 333.165 913.644 333.165 921.258ZM318.199 921.258C318.199 916.326 317.46 912.167 315.983 908.781C314.528 905.394 312.472 902.826 309.812 901.076C307.153 899.326 304.04 898.451 300.472 898.451C296.903 898.451 293.79 899.326 291.131 901.076C288.472 902.826 286.403 905.394 284.926 908.781C283.472 912.167 282.744 916.326 282.744 921.258C282.744 926.19 283.472 930.349 284.926 933.735C286.403 937.122 288.472 939.69 291.131 941.44C293.79 943.19 296.903 944.065 300.472 944.065C304.04 944.065 307.153 943.19 309.812 941.44C312.472 939.69 314.528 937.122 315.983 933.735C317.46 930.349 318.199 926.19 318.199 921.258Z" fill="#19EFFD"/>
<path d="M50.8338 1121.83H26.0838V1052.02H51.0384C58.0611 1052.02 64.1065 1053.41 69.1747 1056.21C74.2429 1058.98 78.1406 1062.97 80.8679 1068.17C83.6179 1073.38 84.9929 1079.61 84.9929 1086.86C84.9929 1094.13 83.6179 1100.38 80.8679 1105.61C78.1406 1110.83 74.2202 1114.84 69.1065 1117.64C64.0156 1120.44 57.9247 1121.83 50.8338 1121.83ZM40.8452 1109.19H50.2202C54.5838 1109.19 58.2543 1108.41 61.2315 1106.87C64.2315 1105.3 66.4815 1102.88 67.9815 1099.61C69.5043 1096.31 70.2656 1092.06 70.2656 1086.86C70.2656 1081.7 69.5043 1077.48 67.9815 1074.21C66.4815 1070.94 64.2429 1068.53 61.2656 1066.98C58.2884 1065.44 54.6179 1064.66 50.2543 1064.66H40.8452V1109.19ZM95.9276 1121.83V1052.02H142.973V1064.19H110.689V1080.82H140.553V1092.99H110.689V1109.66H143.109V1121.83H95.9276ZM154.709 1121.83V1052.02H182.254C187.55 1052.02 192.061 1053.03 195.788 1055.05C199.516 1057.05 202.357 1059.83 204.311 1063.4C206.288 1066.95 207.277 1071.04 207.277 1075.67C207.277 1080.31 206.277 1084.4 204.277 1087.95C202.277 1091.49 199.379 1094.25 195.584 1096.23C191.811 1098.21 187.243 1099.2 181.879 1099.2H164.322V1087.37H179.493C182.334 1087.37 184.675 1086.88 186.516 1085.9C188.379 1084.9 189.766 1083.53 190.675 1081.78C191.607 1080 192.072 1077.97 192.072 1075.67C192.072 1073.36 191.607 1071.33 190.675 1069.61C189.766 1067.86 188.379 1066.5 186.516 1065.55C184.652 1064.57 182.288 1064.08 179.425 1064.08H169.47V1121.83H154.709ZM216.865 1121.83V1052.02H231.626V1109.66H261.558V1121.83H216.865ZM332.774 1086.92C332.774 1094.54 331.331 1101.02 328.445 1106.36C325.581 1111.7 321.672 1115.78 316.717 1118.59C311.786 1121.39 306.24 1122.79 300.081 1122.79C293.876 1122.79 288.308 1121.38 283.376 1118.56C278.445 1115.74 274.547 1111.66 271.683 1106.32C268.82 1100.98 267.388 1094.52 267.388 1086.92C267.388 1079.31 268.82 1072.83 271.683 1067.49C274.547 1062.15 278.445 1058.08 283.376 1055.29C288.308 1052.47 293.876 1051.06 300.081 1051.06C306.24 1051.06 311.786 1052.47 316.717 1055.29C321.672 1058.08 325.581 1062.15 328.445 1067.49C331.331 1072.83 332.774 1079.31 332.774 1086.92ZM317.808 1086.92C317.808 1081.99 317.07 1077.83 315.592 1074.45C314.138 1071.06 312.081 1068.49 309.422 1066.74C306.763 1064.99 303.649 1064.12 300.081 1064.12C296.513 1064.12 293.399 1064.99 290.74 1066.74C288.081 1068.49 286.013 1071.06 284.536 1074.45C283.081 1077.83 282.354 1081.99 282.354 1086.92C282.354 1091.86 283.081 1096.02 284.536 1099.4C286.013 1102.79 288.081 1105.36 290.74 1107.11C293.399 1108.86 296.513 1109.73 300.081 1109.73C303.649 1109.73 306.763 1108.86 309.422 1107.11C312.081 1105.36 314.138 1102.79 315.592 1099.4C317.07 1096.02 317.808 1091.86 317.808 1086.92ZM335.399 1052.02H351.933L367.854 1082.08H368.536L384.456 1052.02H400.99L375.524 1097.15V1121.83H360.865V1097.15L335.399 1052.02Z" fill="#19EFFD"/>
<path d="M50.8338 1287.5H26.0838V1217.68H51.0384C58.0611 1217.68 64.1065 1219.08 69.1747 1221.88C74.2429 1224.65 78.1406 1228.64 80.8679 1233.84C83.6179 1239.05 84.9929 1245.27 84.9929 1252.52C84.9929 1259.8 83.6179 1266.05 80.8679 1271.27C78.1406 1276.5 74.2202 1280.51 69.1065 1283.31C64.0156 1286.1 57.9247 1287.5 50.8338 1287.5ZM40.8452 1274.85H50.2202C54.5838 1274.85 58.2543 1274.08 61.2315 1272.53C64.2315 1270.97 66.4815 1268.55 67.9815 1265.27C69.5043 1261.98 70.2656 1257.73 70.2656 1252.52C70.2656 1247.36 69.5043 1243.15 67.9815 1239.88C66.4815 1236.6 64.2429 1234.19 61.2656 1232.65C58.2884 1231.1 54.6179 1230.33 50.2543 1230.33H40.8452V1274.85ZM95.9276 1287.5V1217.68H142.973V1229.85H110.689V1246.49H140.553V1258.66H110.689V1275.33H143.109V1287.5H95.9276ZM154.709 1287.5V1217.68H182.254C187.55 1217.68 192.061 1218.69 195.788 1220.72C199.516 1222.72 202.357 1225.5 204.311 1229.07C206.288 1232.61 207.277 1236.71 207.277 1241.34C207.277 1245.98 206.277 1250.07 204.277 1253.61C202.277 1257.16 199.379 1259.92 195.584 1261.9C191.811 1263.88 187.243 1264.86 181.879 1264.86H164.322V1253.03H179.493C182.334 1253.03 184.675 1252.55 186.516 1251.57C188.379 1250.57 189.766 1249.19 190.675 1247.44C191.607 1245.67 192.072 1243.64 192.072 1241.34C192.072 1239.02 191.607 1237 190.675 1235.27C189.766 1233.52 188.379 1232.17 186.516 1231.22C184.652 1230.24 182.288 1229.75 179.425 1229.75H169.47V1287.5H154.709ZM216.865 1287.5V1217.68H231.626V1275.33H261.558V1287.5H216.865ZM332.774 1252.59C332.774 1260.21 331.331 1266.68 328.445 1272.02C325.581 1277.36 321.672 1281.44 316.717 1284.26C311.786 1287.06 306.24 1288.46 300.081 1288.46C293.876 1288.46 288.308 1287.05 283.376 1284.23C278.445 1281.41 274.547 1277.33 271.683 1271.99C268.82 1266.65 267.388 1260.18 267.388 1252.59C267.388 1244.98 268.82 1238.5 271.683 1233.16C274.547 1227.82 278.445 1223.75 283.376 1220.96C288.308 1218.14 293.876 1216.73 300.081 1216.73C306.24 1216.73 311.786 1218.14 316.717 1220.96C321.672 1223.75 325.581 1227.82 328.445 1233.16C331.331 1238.5 332.774 1244.98 332.774 1252.59ZM317.808 1252.59C317.808 1247.66 317.07 1243.5 315.592 1240.11C314.138 1236.73 312.081 1234.16 309.422 1232.41C306.763 1230.66 303.649 1229.78 300.081 1229.78C296.513 1229.78 293.399 1230.66 290.74 1232.41C288.081 1234.16 286.013 1236.73 284.536 1240.11C283.081 1243.5 282.354 1247.66 282.354 1252.59C282.354 1257.52 283.081 1261.68 284.536 1265.07C286.013 1268.46 288.081 1271.02 290.74 1272.77C293.399 1274.52 296.513 1275.4 300.081 1275.4C303.649 1275.4 306.763 1274.52 309.422 1272.77C312.081 1271.02 314.138 1268.46 315.592 1265.07C317.07 1261.68 317.808 1257.52 317.808 1252.59ZM335.399 1217.68H351.933L367.854 1247.75H368.536L384.456 1217.68H400.99L375.524 1262.82V1287.5H360.865V1262.82L335.399 1217.68Z" fill="url(#paint0_linear_84_295)"/>
<path d="M50.8338 1453.17H26.0838V1383.35H51.0384C58.0611 1383.35 64.1065 1384.75 69.1747 1387.54C74.2429 1390.31 78.1406 1394.3 80.8679 1399.51C83.6179 1404.71 84.9929 1410.94 84.9929 1418.19C84.9929 1425.46 83.6179 1431.71 80.8679 1436.94C78.1406 1442.17 74.2202 1446.18 69.1065 1448.97C64.0156 1451.77 57.9247 1453.17 50.8338 1453.17ZM40.8452 1440.52H50.2202C54.5838 1440.52 58.2543 1439.75 61.2315 1438.2C64.2315 1436.63 66.4815 1434.21 67.9815 1430.94C69.5043 1427.64 70.2656 1423.39 70.2656 1418.19C70.2656 1413.03 69.5043 1408.81 67.9815 1405.54C66.4815 1402.27 64.2429 1399.86 61.2656 1398.31C58.2884 1396.77 54.6179 1396 50.2543 1396H40.8452V1440.52ZM95.9276 1453.17V1383.35H142.973V1395.52H110.689V1412.16H140.553V1424.33H110.689V1441H143.109V1453.17H95.9276ZM154.709 1453.17V1383.35H182.254C187.55 1383.35 192.061 1384.36 195.788 1386.38C199.516 1388.38 202.357 1391.17 204.311 1394.74C206.288 1398.28 207.277 1402.37 207.277 1407.01C207.277 1411.64 206.277 1415.74 204.277 1419.28C202.277 1422.83 199.379 1425.59 195.584 1427.56C191.811 1429.54 187.243 1430.53 181.879 1430.53H164.322V1418.7H179.493C182.334 1418.7 184.675 1418.21 186.516 1417.24C188.379 1416.24 189.766 1414.86 190.675 1413.11C191.607 1411.34 192.072 1409.3 192.072 1407.01C192.072 1404.69 191.607 1402.67 190.675 1400.94C189.766 1399.19 188.379 1397.84 186.516 1396.88C184.652 1395.91 182.288 1395.42 179.425 1395.42H169.47V1453.17H154.709ZM216.865 1453.17V1383.35H231.626V1441H261.558V1453.17H216.865ZM332.774 1418.26C332.774 1425.87 331.331 1432.35 328.445 1437.69C325.581 1443.03 321.672 1447.11 316.717 1449.93C311.786 1452.72 306.24 1454.12 300.081 1454.12C293.876 1454.12 288.308 1452.71 283.376 1449.89C278.445 1447.08 274.547 1443 271.683 1437.66C268.82 1432.31 267.388 1425.85 267.388 1418.26C267.388 1410.64 268.82 1404.17 271.683 1398.83C274.547 1393.49 278.445 1389.42 283.376 1386.62C288.308 1383.8 293.876 1382.39 300.081 1382.39C306.24 1382.39 311.786 1383.8 316.717 1386.62C321.672 1389.42 325.581 1393.49 328.445 1398.83C331.331 1404.17 332.774 1410.64 332.774 1418.26ZM317.808 1418.26C317.808 1413.33 317.07 1409.17 315.592 1405.78C314.138 1402.39 312.081 1399.83 309.422 1398.08C306.763 1396.33 303.649 1395.45 300.081 1395.45C296.513 1395.45 293.399 1396.33 290.74 1398.08C288.081 1399.83 286.013 1402.39 284.536 1405.78C283.081 1409.17 282.354 1413.33 282.354 1418.26C282.354 1423.19 283.081 1427.35 284.536 1430.74C286.013 1434.12 288.081 1436.69 290.74 1438.44C293.399 1440.19 296.513 1441.06 300.081 1441.06C303.649 1441.06 306.763 1440.19 309.422 1438.44C312.081 1436.69 314.138 1434.12 315.592 1430.74C317.07 1427.35 317.808 1423.19 317.808 1418.26ZM335.399 1383.35H351.933L367.854 1413.42H368.536L384.456 1383.35H400.99L375.524 1428.49V1453.17H360.865V1428.49L335.399 1383.35Z" fill="url(#paint1_linear_84_295)"/>
<rect x="0.5" y="0.5" width="427" height="1510" rx="4.5" stroke="#9747FF" stroke-dasharray="10 5"/>
<defs>
<linearGradient id="paint0_linear_84_295" x1="20" y1="1252.67" x2="403" y2="1252.67" gradientUnits="userSpaceOnUse">
<stop stop-color="#19EFFD" stop-opacity="0"/>
<stop offset="0.130208" stop-color="#19EFFD" stop-opacity="0.865567"/>
<stop offset="1" stop-color="#19EFFD"/>
</linearGradient>
<linearGradient id="paint1_linear_84_295" x1="20" y1="1418.67" x2="403" y2="1418.67" gradientUnits="userSpaceOnUse">
<stop stop-color="#19EFFD" stop-opacity="0"/>
<stop offset="0.260417" stop-color="#19EFFD" stop-opacity="0"/>
<stop offset="0.482374" stop-color="#19EFFD" stop-opacity="0"/>
<stop offset="1" stop-color="#19EFFD"/>
</linearGradient>
</defs>
</svg>
