<svg width="404" height="1511" viewBox="0 0 404 1511" fill="none" xmlns="http://www.w3.org/2000/svg">
<path d="M51.7869 127.833H27.0369V58.0152H51.9915C59.0142 58.0152 65.0597 59.4129 70.1278 62.2083C75.196 64.9811 79.0938 68.9697 81.821 74.1743C84.571 79.3788 85.946 85.6061 85.946 92.8561C85.946 100.129 84.571 106.379 81.821 111.606C79.0938 116.833 75.1733 120.845 70.0597 123.64C64.9688 126.436 58.8778 127.833 51.7869 127.833ZM41.7983 115.186H51.1733C55.5369 115.186 59.2074 114.413 62.1847 112.867C65.1847 111.299 67.4347 108.879 68.9347 105.606C70.4574 102.311 71.2188 98.0606 71.2188 92.8561C71.2188 87.697 70.4574 83.4811 68.9347 80.2083C67.4347 76.9356 65.196 74.5265 62.2188 72.9811C59.2415 71.4356 55.571 70.6629 51.2074 70.6629H41.7983V115.186ZM96.8807 127.833V58.0152H143.926V70.1856H111.642V86.822H141.506V98.9924H111.642V115.663H144.062V127.833H96.8807ZM193.537 78.0947C193.264 75.3447 192.094 73.2083 190.026 71.6856C187.957 70.1629 185.151 69.4015 181.605 69.4015C179.196 69.4015 177.162 69.7424 175.503 70.4243C173.844 71.0833 172.571 72.0038 171.685 73.1856C170.821 74.3674 170.389 75.7083 170.389 77.2083C170.344 78.4583 170.605 79.5493 171.173 80.4811C171.764 81.4129 172.571 82.2197 173.594 82.9015C174.616 83.5606 175.798 84.1402 177.139 84.6402C178.48 85.1174 179.912 85.5265 181.435 85.8674L187.707 87.3674C190.753 88.0493 193.548 88.9583 196.094 90.0947C198.639 91.2311 200.844 92.6288 202.707 94.2879C204.571 95.947 206.014 97.9015 207.037 100.152C208.082 102.402 208.616 104.981 208.639 107.89C208.616 112.163 207.526 115.867 205.366 119.004C203.23 122.117 200.139 124.538 196.094 126.265C192.071 127.97 187.219 128.822 181.537 128.822C175.901 128.822 170.991 127.958 166.81 126.231C162.651 124.504 159.401 121.947 157.06 118.561C154.741 115.152 153.526 110.936 153.412 105.913H167.696C167.855 108.254 168.526 110.208 169.707 111.777C170.912 113.322 172.514 114.492 174.514 115.288C176.537 116.061 178.821 116.447 181.366 116.447C183.866 116.447 186.037 116.083 187.878 115.356C189.741 114.629 191.185 113.617 192.207 112.322C193.23 111.027 193.741 109.538 193.741 107.856C193.741 106.288 193.276 104.97 192.344 103.902C191.435 102.833 190.094 101.924 188.321 101.174C186.571 100.424 184.423 99.7424 181.878 99.1288L174.276 97.2197C168.389 95.7879 163.741 93.5493 160.332 90.5038C156.923 87.4583 155.23 83.3561 155.253 78.197C155.23 73.9697 156.355 70.2765 158.628 67.1174C160.923 63.9583 164.071 61.4924 168.071 59.7197C172.071 57.947 176.616 57.0606 181.707 57.0606C186.889 57.0606 191.412 57.947 195.276 59.7197C199.162 61.4924 202.185 63.9583 204.344 67.1174C206.503 70.2765 207.616 73.9356 207.685 78.0947H193.537ZM233.33 58.0152V127.833H218.568V58.0152H233.33ZM291.77 80.5833C291.293 78.9243 290.622 77.4583 289.759 76.1856C288.895 74.8902 287.838 73.7993 286.588 72.9129C285.361 72.0038 283.952 71.3106 282.361 70.8333C280.793 70.3561 279.054 70.1174 277.145 70.1174C273.577 70.1174 270.44 71.0038 267.736 72.7765C265.054 74.5492 262.963 77.1288 261.463 80.5152C259.963 83.8788 259.213 87.9924 259.213 92.8561C259.213 97.7197 259.952 101.856 261.429 105.265C262.906 108.674 264.997 111.277 267.702 113.072C270.406 114.845 273.599 115.731 277.281 115.731C280.622 115.731 283.474 115.14 285.838 113.958C288.224 112.754 290.043 111.061 291.293 108.879C292.565 106.697 293.202 104.117 293.202 101.14L296.202 101.583H278.202V90.4697H307.418V99.2652C307.418 105.402 306.122 110.674 303.531 115.083C300.94 119.47 297.372 122.856 292.827 125.242C288.281 127.606 283.077 128.788 277.213 128.788C270.668 128.788 264.918 127.345 259.963 124.458C255.009 121.549 251.145 117.424 248.372 112.083C245.622 106.72 244.247 100.356 244.247 92.9924C244.247 87.3333 245.065 82.2879 246.702 77.8561C248.361 73.4015 250.679 69.6288 253.656 66.5379C256.634 63.447 260.099 61.0947 264.054 59.4811C268.009 57.8674 272.293 57.0606 276.906 57.0606C280.861 57.0606 284.543 57.6402 287.952 58.7993C291.361 59.9356 294.384 61.5493 297.02 63.6402C299.679 65.7311 301.849 68.2197 303.531 71.1061C305.213 73.9697 306.293 77.1288 306.77 80.5833H291.77ZM376.903 58.0152V127.833H364.153L333.778 83.8902H333.267V127.833H318.506V58.0152H331.46L361.597 101.924H362.21V58.0152H376.903Z" fill="url(#paint0_linear_80_200)"/>
<path d="M51.7869 293.5H27.0369V223.682H51.9915C59.0142 223.682 65.0597 225.08 70.1278 227.875C75.196 230.648 79.0938 234.636 81.821 239.841C84.571 245.045 85.946 251.273 85.946 258.523C85.946 265.795 84.571 272.045 81.821 277.273C79.0938 282.5 75.1733 286.511 70.0597 289.307C64.9688 292.102 58.8778 293.5 51.7869 293.5ZM41.7983 280.852H51.1733C55.5369 280.852 59.2074 280.08 62.1847 278.534C65.1847 276.966 67.4347 274.545 68.9347 271.273C70.4574 267.977 71.2188 263.727 71.2188 258.523C71.2188 253.364 70.4574 249.148 68.9347 245.875C67.4347 242.602 65.196 240.193 62.2188 238.648C59.2415 237.102 55.571 236.33 51.2074 236.33H41.7983V280.852Z" fill="#19EFFD"/>
<path d="M51.7869 459.167H27.0369V389.349H51.9915C59.0142 389.349 65.0597 390.746 70.1278 393.542C75.196 396.314 79.0938 400.303 81.821 405.508C84.571 410.712 85.946 416.939 85.946 424.189C85.946 431.462 84.571 437.712 81.821 442.939C79.0938 448.167 75.1733 452.178 70.0597 454.974C64.9688 457.769 58.8778 459.167 51.7869 459.167ZM41.7983 446.519H51.1733C55.5369 446.519 59.2074 445.746 62.1847 444.201C65.1847 442.633 67.4347 440.212 68.9347 436.939C70.4574 433.644 71.2188 429.394 71.2188 424.189C71.2188 419.03 70.4574 414.814 68.9347 411.542C67.4347 408.269 65.196 405.86 62.2188 404.314C59.2415 402.769 55.571 401.996 51.2074 401.996H41.7983V446.519ZM96.8807 459.167V389.349H143.926V401.519H111.642V418.155H141.506V430.326H111.642V446.996H144.062V459.167H96.8807Z" fill="#19EFFD"/>
<path d="M51.7869 624.833H27.0369V555.015H51.9915C59.0142 555.015 65.0597 556.413 70.1278 559.208C75.196 561.981 79.0938 565.97 81.821 571.174C84.571 576.379 85.946 582.606 85.946 589.856C85.946 597.129 84.571 603.379 81.821 608.606C79.0938 613.833 75.1733 617.845 70.0597 620.64C64.9688 623.436 58.8778 624.833 51.7869 624.833ZM41.7983 612.186H51.1733C55.5369 612.186 59.2074 611.413 62.1847 609.867C65.1847 608.299 67.4347 605.879 68.9347 602.606C70.4574 599.311 71.2188 595.061 71.2188 589.856C71.2188 584.697 70.4574 580.481 68.9347 577.208C67.4347 573.936 65.196 571.526 62.2188 569.981C59.2415 568.436 55.571 567.663 51.2074 567.663H41.7983V612.186ZM96.8807 624.833V555.015H143.926V567.186H111.642V583.822H141.506V595.992H111.642V612.663H144.062V624.833H96.8807ZM193.537 575.095C193.264 572.345 192.094 570.208 190.026 568.686C187.957 567.163 185.151 566.401 181.605 566.401C179.196 566.401 177.162 566.742 175.503 567.424C173.844 568.083 172.571 569.004 171.685 570.186C170.821 571.367 170.389 572.708 170.389 574.208C170.344 575.458 170.605 576.549 171.173 577.481C171.764 578.413 172.571 579.22 173.594 579.901C174.616 580.561 175.798 581.14 177.139 581.64C178.48 582.117 179.912 582.526 181.435 582.867L187.707 584.367C190.753 585.049 193.548 585.958 196.094 587.095C198.639 588.231 200.844 589.629 202.707 591.288C204.571 592.947 206.014 594.901 207.037 597.151C208.082 599.401 208.616 601.981 208.639 604.89C208.616 609.163 207.526 612.867 205.366 616.004C203.23 619.117 200.139 621.538 196.094 623.265C192.071 624.97 187.219 625.822 181.537 625.822C175.901 625.822 170.991 624.958 166.81 623.231C162.651 621.504 159.401 618.947 157.06 615.561C154.741 612.151 153.526 607.936 153.412 602.913H167.696C167.855 605.254 168.526 607.208 169.707 608.776C170.912 610.322 172.514 611.492 174.514 612.288C176.537 613.061 178.821 613.447 181.366 613.447C183.866 613.447 186.037 613.083 187.878 612.356C189.741 611.629 191.185 610.617 192.207 609.322C193.23 608.026 193.741 606.538 193.741 604.856C193.741 603.288 193.276 601.97 192.344 600.901C191.435 599.833 190.094 598.924 188.321 598.174C186.571 597.424 184.423 596.742 181.878 596.129L174.276 594.22C168.389 592.788 163.741 590.549 160.332 587.504C156.923 584.458 155.23 580.356 155.253 575.197C155.23 570.97 156.355 567.276 158.628 564.117C160.923 560.958 164.071 558.492 168.071 556.72C172.071 554.947 176.616 554.061 181.707 554.061C186.889 554.061 191.412 554.947 195.276 556.72C199.162 558.492 202.185 560.958 204.344 564.117C206.503 567.276 207.616 570.936 207.685 575.095H193.537Z" fill="#19EFFD"/>
<path d="M51.7869 790.5H27.0369V720.682H51.9915C59.0142 720.682 65.0597 722.08 70.1278 724.875C75.196 727.648 79.0938 731.636 81.821 736.841C84.571 742.046 85.946 748.273 85.946 755.523C85.946 762.796 84.571 769.046 81.821 774.273C79.0938 779.5 75.1733 783.511 70.0597 786.307C64.9688 789.102 58.8778 790.5 51.7869 790.5ZM41.7983 777.852H51.1733C55.5369 777.852 59.2074 777.08 62.1847 775.534C65.1847 773.966 67.4347 771.546 68.9347 768.273C70.4574 764.977 71.2188 760.727 71.2188 755.523C71.2188 750.364 70.4574 746.148 68.9347 742.875C67.4347 739.602 65.196 737.193 62.2188 735.648C59.2415 734.102 55.571 733.33 51.2074 733.33H41.7983V777.852ZM96.8807 790.5V720.682H143.926V732.852H111.642V749.489H141.506V761.659H111.642V778.33H144.062V790.5H96.8807ZM193.537 740.761C193.264 738.011 192.094 735.875 190.026 734.352C187.957 732.83 185.151 732.068 181.605 732.068C179.196 732.068 177.162 732.409 175.503 733.091C173.844 733.75 172.571 734.671 171.685 735.852C170.821 737.034 170.389 738.375 170.389 739.875C170.344 741.125 170.605 742.216 171.173 743.148C171.764 744.08 172.571 744.886 173.594 745.568C174.616 746.227 175.798 746.807 177.139 747.307C178.48 747.784 179.912 748.193 181.435 748.534L187.707 750.034C190.753 750.716 193.548 751.625 196.094 752.761C198.639 753.898 200.844 755.296 202.707 756.955C204.571 758.614 206.014 760.568 207.037 762.818C208.082 765.068 208.616 767.648 208.639 770.557C208.616 774.83 207.526 778.534 205.366 781.671C203.23 784.784 200.139 787.205 196.094 788.932C192.071 790.636 187.219 791.489 181.537 791.489C175.901 791.489 170.991 790.625 166.81 788.898C162.651 787.171 159.401 784.614 157.06 781.227C154.741 777.818 153.526 773.602 153.412 768.58H167.696C167.855 770.921 168.526 772.875 169.707 774.443C170.912 775.989 172.514 777.159 174.514 777.955C176.537 778.727 178.821 779.114 181.366 779.114C183.866 779.114 186.037 778.75 187.878 778.023C189.741 777.296 191.185 776.284 192.207 774.989C193.23 773.693 193.741 772.205 193.741 770.523C193.741 768.955 193.276 767.636 192.344 766.568C191.435 765.5 190.094 764.591 188.321 763.841C186.571 763.091 184.423 762.409 181.878 761.796L174.276 759.886C168.389 758.455 163.741 756.216 160.332 753.171C156.923 750.125 155.23 746.023 155.253 740.864C155.23 736.636 156.355 732.943 158.628 729.784C160.923 726.625 164.071 724.159 168.071 722.386C172.071 720.614 176.616 719.727 181.707 719.727C186.889 719.727 191.412 720.614 195.276 722.386C199.162 724.159 202.185 726.625 204.344 729.784C206.503 732.943 207.616 736.602 207.685 740.761H193.537ZM233.33 720.682V790.5H218.568V720.682H233.33Z" fill="#19EFFD"/>
<path d="M51.7869 956.167H27.0369V886.349H51.9915C59.0142 886.349 65.0597 887.746 70.1278 890.542C75.196 893.314 79.0938 897.303 81.821 902.508C84.571 907.712 85.946 913.939 85.946 921.189C85.946 928.462 84.571 934.712 81.821 939.939C79.0938 945.167 75.1733 949.178 70.0597 951.974C64.9688 954.769 58.8778 956.167 51.7869 956.167ZM41.7983 943.519H51.1733C55.5369 943.519 59.2074 942.746 62.1847 941.201C65.1847 939.633 67.4347 937.212 68.9347 933.939C70.4574 930.644 71.2188 926.394 71.2188 921.189C71.2188 916.03 70.4574 911.814 68.9347 908.542C67.4347 905.269 65.196 902.86 62.2188 901.314C59.2415 899.769 55.571 898.996 51.2074 898.996H41.7983V943.519ZM96.8807 956.167V886.349H143.926V898.519H111.642V915.155H141.506V927.326H111.642V943.996H144.062V956.167H96.8807ZM193.537 906.428C193.264 903.678 192.094 901.542 190.026 900.019C187.957 898.496 185.151 897.735 181.605 897.735C179.196 897.735 177.162 898.076 175.503 898.758C173.844 899.417 172.571 900.337 171.685 901.519C170.821 902.701 170.389 904.042 170.389 905.542C170.344 906.792 170.605 907.883 171.173 908.814C171.764 909.746 172.571 910.553 173.594 911.235C174.616 911.894 175.798 912.474 177.139 912.974C178.48 913.451 179.912 913.86 181.435 914.201L187.707 915.701C190.753 916.383 193.548 917.292 196.094 918.428C198.639 919.564 200.844 920.962 202.707 922.621C204.571 924.28 206.014 926.235 207.037 928.485C208.082 930.735 208.616 933.314 208.639 936.224C208.616 940.496 207.526 944.201 205.366 947.337C203.23 950.451 200.139 952.871 196.094 954.599C192.071 956.303 187.219 957.155 181.537 957.155C175.901 957.155 170.991 956.292 166.81 954.564C162.651 952.837 159.401 950.28 157.06 946.894C154.741 943.485 153.526 939.269 153.412 934.246H167.696C167.855 936.587 168.526 938.542 169.707 940.11C170.912 941.655 172.514 942.826 174.514 943.621C176.537 944.394 178.821 944.78 181.366 944.78C183.866 944.78 186.037 944.417 187.878 943.689C189.741 942.962 191.185 941.951 192.207 940.655C193.23 939.36 193.741 937.871 193.741 936.189C193.741 934.621 193.276 933.303 192.344 932.235C191.435 931.167 190.094 930.258 188.321 929.508C186.571 928.758 184.423 928.076 181.878 927.462L174.276 925.553C168.389 924.121 163.741 921.883 160.332 918.837C156.923 915.792 155.23 911.689 155.253 906.53C155.23 902.303 156.355 898.61 158.628 895.451C160.923 892.292 164.071 889.826 168.071 888.053C172.071 886.28 176.616 885.394 181.707 885.394C186.889 885.394 191.412 886.28 195.276 888.053C199.162 889.826 202.185 892.292 204.344 895.451C206.503 898.61 207.616 902.269 207.685 906.428H193.537ZM233.33 886.349V956.167H218.568V886.349H233.33ZM291.77 908.917C291.293 907.258 290.622 905.792 289.759 904.519C288.895 903.224 287.838 902.133 286.588 901.246C285.361 900.337 283.952 899.644 282.361 899.167C280.793 898.689 279.054 898.451 277.145 898.451C273.577 898.451 270.44 899.337 267.736 901.11C265.054 902.883 262.963 905.462 261.463 908.849C259.963 912.212 259.213 916.326 259.213 921.189C259.213 926.053 259.952 930.189 261.429 933.599C262.906 937.008 264.997 939.61 267.702 941.405C270.406 943.178 273.599 944.064 277.281 944.064C280.622 944.064 283.474 943.474 285.838 942.292C288.224 941.087 290.043 939.394 291.293 937.212C292.565 935.03 293.202 932.451 293.202 929.474L296.202 929.917H278.202V918.803H307.418V927.599C307.418 933.735 306.122 939.008 303.531 943.417C300.94 947.803 297.372 951.189 292.827 953.576C288.281 955.939 283.077 957.121 277.213 957.121C270.668 957.121 264.918 955.678 259.963 952.792C255.009 949.883 251.145 945.758 248.372 940.417C245.622 935.053 244.247 928.689 244.247 921.326C244.247 915.667 245.065 910.621 246.702 906.189C248.361 901.735 250.679 897.962 253.656 894.871C256.634 891.78 260.099 889.428 264.054 887.814C268.009 886.201 272.293 885.394 276.906 885.394C280.861 885.394 284.543 885.974 287.952 887.133C291.361 888.269 294.384 889.883 297.02 891.974C299.679 894.064 301.849 896.553 303.531 899.439C305.213 902.303 306.293 905.462 306.77 908.917H291.77Z" fill="#19EFFD"/>
<path d="M51.7869 1121.83H27.0369V1052.02H51.9915C59.0142 1052.02 65.0597 1053.41 70.1278 1056.21C75.196 1058.98 79.0938 1062.97 81.821 1068.17C84.571 1073.38 85.946 1079.61 85.946 1086.86C85.946 1094.13 84.571 1100.38 81.821 1105.61C79.0938 1110.83 75.1733 1114.84 70.0597 1117.64C64.9688 1120.44 58.8778 1121.83 51.7869 1121.83ZM41.7983 1109.19H51.1733C55.5369 1109.19 59.2074 1108.41 62.1847 1106.87C65.1847 1105.3 67.4347 1102.88 68.9347 1099.61C70.4574 1096.31 71.2188 1092.06 71.2188 1086.86C71.2188 1081.7 70.4574 1077.48 68.9347 1074.21C67.4347 1070.94 65.196 1068.53 62.2188 1066.98C59.2415 1065.44 55.571 1064.66 51.2074 1064.66H41.7983V1109.19ZM96.8807 1121.83V1052.02H143.926V1064.19H111.642V1080.82H141.506V1092.99H111.642V1109.66H144.062V1121.83H96.8807ZM193.537 1072.09C193.264 1069.34 192.094 1067.21 190.026 1065.69C187.957 1064.16 185.151 1063.4 181.605 1063.4C179.196 1063.4 177.162 1063.74 175.503 1064.42C173.844 1065.08 172.571 1066 171.685 1067.19C170.821 1068.37 170.389 1069.71 170.389 1071.21C170.344 1072.46 170.605 1073.55 171.173 1074.48C171.764 1075.41 172.571 1076.22 173.594 1076.9C174.616 1077.56 175.798 1078.14 177.139 1078.64C178.48 1079.12 179.912 1079.53 181.435 1079.87L187.707 1081.37C190.753 1082.05 193.548 1082.96 196.094 1084.09C198.639 1085.23 200.844 1086.63 202.707 1088.29C204.571 1089.95 206.014 1091.9 207.037 1094.15C208.082 1096.4 208.616 1098.98 208.639 1101.89C208.616 1106.16 207.526 1109.87 205.366 1113C203.23 1116.12 200.139 1118.54 196.094 1120.27C192.071 1121.97 187.219 1122.82 181.537 1122.82C175.901 1122.82 170.991 1121.96 166.81 1120.23C162.651 1118.5 159.401 1115.95 157.06 1112.56C154.741 1109.15 153.526 1104.94 153.412 1099.91H167.696C167.855 1102.25 168.526 1104.21 169.707 1105.78C170.912 1107.32 172.514 1108.49 174.514 1109.29C176.537 1110.06 178.821 1110.45 181.366 1110.45C183.866 1110.45 186.037 1110.08 187.878 1109.36C189.741 1108.63 191.185 1107.62 192.207 1106.32C193.23 1105.03 193.741 1103.54 193.741 1101.86C193.741 1100.29 193.276 1098.97 192.344 1097.9C191.435 1096.83 190.094 1095.92 188.321 1095.17C186.571 1094.42 184.423 1093.74 181.878 1093.13L174.276 1091.22C168.389 1089.79 163.741 1087.55 160.332 1084.5C156.923 1081.46 155.23 1077.36 155.253 1072.2C155.23 1067.97 156.355 1064.28 158.628 1061.12C160.923 1057.96 164.071 1055.49 168.071 1053.72C172.071 1051.95 176.616 1051.06 181.707 1051.06C186.889 1051.06 191.412 1051.95 195.276 1053.72C199.162 1055.49 202.185 1057.96 204.344 1061.12C206.503 1064.28 207.616 1067.94 207.685 1072.09H193.537ZM233.33 1052.02V1121.83H218.568V1052.02H233.33ZM291.77 1074.58C291.293 1072.92 290.622 1071.46 289.759 1070.19C288.895 1068.89 287.838 1067.8 286.588 1066.91C285.361 1066 283.952 1065.31 282.361 1064.83C280.793 1064.36 279.054 1064.12 277.145 1064.12C273.577 1064.12 270.44 1065 267.736 1066.78C265.054 1068.55 262.963 1071.13 261.463 1074.52C259.963 1077.88 259.213 1081.99 259.213 1086.86C259.213 1091.72 259.952 1095.86 261.429 1099.27C262.906 1102.67 264.997 1105.28 267.702 1107.07C270.406 1108.84 273.599 1109.73 277.281 1109.73C280.622 1109.73 283.474 1109.14 285.838 1107.96C288.224 1106.75 290.043 1105.06 291.293 1102.88C292.565 1100.7 293.202 1098.12 293.202 1095.14L296.202 1095.58H278.202V1084.47H307.418V1093.27C307.418 1099.4 306.122 1104.67 303.531 1109.08C300.94 1113.47 297.372 1116.86 292.827 1119.24C288.281 1121.61 283.077 1122.79 277.213 1122.79C270.668 1122.79 264.918 1121.34 259.963 1118.46C255.009 1115.55 251.145 1111.42 248.372 1106.08C245.622 1100.72 244.247 1094.36 244.247 1086.99C244.247 1081.33 245.065 1076.29 246.702 1071.86C248.361 1067.4 250.679 1063.63 253.656 1060.54C256.634 1057.45 260.099 1055.09 264.054 1053.48C268.009 1051.87 272.293 1051.06 276.906 1051.06C280.861 1051.06 284.543 1051.64 287.952 1052.8C291.361 1053.94 294.384 1055.55 297.02 1057.64C299.679 1059.73 301.849 1062.22 303.531 1065.11C305.213 1067.97 306.293 1071.13 306.77 1074.58H291.77ZM376.903 1052.02V1121.83H364.153L333.778 1077.89H333.267V1121.83H318.506V1052.02H331.46L361.597 1095.92H362.21V1052.02H376.903Z" fill="url(#paint1_linear_80_200)"/>
<path d="M51.7869 1287.5H27.0369V1217.68H51.9915C59.0142 1217.68 65.0597 1219.08 70.1278 1221.88C75.196 1224.65 79.0938 1228.64 81.821 1233.84C84.571 1239.05 85.946 1245.27 85.946 1252.52C85.946 1259.8 84.571 1266.05 81.821 1271.27C79.0938 1276.5 75.1733 1280.51 70.0597 1283.31C64.9688 1286.1 58.8778 1287.5 51.7869 1287.5ZM41.7983 1274.85H51.1733C55.5369 1274.85 59.2074 1274.08 62.1847 1272.53C65.1847 1270.97 67.4347 1268.55 68.9347 1265.27C70.4574 1261.98 71.2188 1257.73 71.2188 1252.52C71.2188 1247.36 70.4574 1243.15 68.9347 1239.88C67.4347 1236.6 65.196 1234.19 62.2188 1232.65C59.2415 1231.1 55.571 1230.33 51.2074 1230.33H41.7983V1274.85ZM96.8807 1287.5V1217.68H143.926V1229.85H111.642V1246.49H141.506V1258.66H111.642V1275.33H144.062V1287.5H96.8807ZM193.537 1237.76C193.264 1235.01 192.094 1232.88 190.026 1231.35C187.957 1229.83 185.151 1229.07 181.605 1229.07C179.196 1229.07 177.162 1229.41 175.503 1230.09C173.844 1230.75 172.571 1231.67 171.685 1232.85C170.821 1234.03 170.389 1235.38 170.389 1236.88C170.344 1238.13 170.605 1239.22 171.173 1240.15C171.764 1241.08 172.571 1241.89 173.594 1242.57C174.616 1243.23 175.798 1243.81 177.139 1244.31C178.48 1244.78 179.912 1245.19 181.435 1245.53L187.707 1247.03C190.753 1247.72 193.548 1248.63 196.094 1249.76C198.639 1250.9 200.844 1252.3 202.707 1253.95C204.571 1255.61 206.014 1257.57 207.037 1259.82C208.082 1262.07 208.616 1264.65 208.639 1267.56C208.616 1271.83 207.526 1275.53 205.366 1278.67C203.23 1281.78 200.139 1284.2 196.094 1285.93C192.071 1287.64 187.219 1288.49 181.537 1288.49C175.901 1288.49 170.991 1287.63 166.81 1285.9C162.651 1284.17 159.401 1281.61 157.06 1278.23C154.741 1274.82 153.526 1270.6 153.412 1265.58H167.696C167.855 1267.92 168.526 1269.88 169.707 1271.44C170.912 1272.99 172.514 1274.16 174.514 1274.95C176.537 1275.73 178.821 1276.11 181.366 1276.11C183.866 1276.11 186.037 1275.75 187.878 1275.02C189.741 1274.3 191.185 1273.28 192.207 1271.99C193.23 1270.69 193.741 1269.2 193.741 1267.52C193.741 1265.95 193.276 1264.64 192.344 1263.57C191.435 1262.5 190.094 1261.59 188.321 1260.84C186.571 1260.09 184.423 1259.41 181.878 1258.8L174.276 1256.89C168.389 1255.45 163.741 1253.22 160.332 1250.17C156.923 1247.13 155.23 1243.02 155.253 1237.86C155.23 1233.64 156.355 1229.94 158.628 1226.78C160.923 1223.63 164.071 1221.16 168.071 1219.39C172.071 1217.61 176.616 1216.73 181.707 1216.73C186.889 1216.73 191.412 1217.61 195.276 1219.39C199.162 1221.16 202.185 1223.63 204.344 1226.78C206.503 1229.94 207.616 1233.6 207.685 1237.76H193.537ZM233.33 1217.68V1287.5H218.568V1217.68H233.33ZM291.77 1240.25C291.293 1238.59 290.622 1237.13 289.759 1235.85C288.895 1234.56 287.838 1233.47 286.588 1232.58C285.361 1231.67 283.952 1230.98 282.361 1230.5C280.793 1230.02 279.054 1229.78 277.145 1229.78C273.577 1229.78 270.44 1230.67 267.736 1232.44C265.054 1234.22 262.963 1236.8 261.463 1240.18C259.963 1243.55 259.213 1247.66 259.213 1252.52C259.213 1257.39 259.952 1261.52 261.429 1264.93C262.906 1268.34 264.997 1270.94 267.702 1272.74C270.406 1274.51 273.599 1275.4 277.281 1275.4C280.622 1275.4 283.474 1274.81 285.838 1273.63C288.224 1272.42 290.043 1270.73 291.293 1268.55C292.565 1266.36 293.202 1263.78 293.202 1260.81L296.202 1261.25H278.202V1250.14H307.418V1258.93C307.418 1265.07 306.122 1270.34 303.531 1274.75C300.94 1279.14 297.372 1282.52 292.827 1284.91C288.281 1287.27 283.077 1288.45 277.213 1288.45C270.668 1288.45 264.918 1287.01 259.963 1284.13C255.009 1281.22 251.145 1277.09 248.372 1271.75C245.622 1266.39 244.247 1260.02 244.247 1252.66C244.247 1247 245.065 1241.95 246.702 1237.52C248.361 1233.07 250.679 1229.3 253.656 1226.2C256.634 1223.11 260.099 1220.76 264.054 1219.15C268.009 1217.53 272.293 1216.73 276.906 1216.73C280.861 1216.73 284.543 1217.31 287.952 1218.47C291.361 1219.6 294.384 1221.22 297.02 1223.31C299.679 1225.4 301.849 1227.89 303.531 1230.77C305.213 1233.64 306.293 1236.8 306.77 1240.25H291.77ZM376.903 1217.68V1287.5H364.153L333.778 1243.56H333.267V1287.5H318.506V1217.68H331.46L361.597 1261.59H362.21V1217.68H376.903Z" fill="url(#paint2_linear_80_200)"/>
<path d="M51.7869 1453.17H27.0369V1383.35H51.9915C59.0142 1383.35 65.0597 1384.75 70.1278 1387.54C75.196 1390.31 79.0938 1394.3 81.821 1399.51C84.571 1404.71 85.946 1410.94 85.946 1418.19C85.946 1425.46 84.571 1431.71 81.821 1436.94C79.0938 1442.17 75.1733 1446.18 70.0597 1448.97C64.9688 1451.77 58.8778 1453.17 51.7869 1453.17ZM41.7983 1440.52H51.1733C55.5369 1440.52 59.2074 1439.75 62.1847 1438.2C65.1847 1436.63 67.4347 1434.21 68.9347 1430.94C70.4574 1427.64 71.2188 1423.39 71.2188 1418.19C71.2188 1413.03 70.4574 1408.81 68.9347 1405.54C67.4347 1402.27 65.196 1399.86 62.2188 1398.31C59.2415 1396.77 55.571 1396 51.2074 1396H41.7983V1440.52ZM96.8807 1453.17V1383.35H143.926V1395.52H111.642V1412.16H141.506V1424.33H111.642V1441H144.062V1453.17H96.8807ZM193.537 1403.43C193.264 1400.68 192.094 1398.54 190.026 1397.02C187.957 1395.5 185.151 1394.73 181.605 1394.73C179.196 1394.73 177.162 1395.08 175.503 1395.76C173.844 1396.42 172.571 1397.34 171.685 1398.52C170.821 1399.7 170.389 1401.04 170.389 1402.54C170.344 1403.79 170.605 1404.88 171.173 1405.81C171.764 1406.75 172.571 1407.55 173.594 1408.23C174.616 1408.89 175.798 1409.47 177.139 1409.97C178.48 1410.45 179.912 1410.86 181.435 1411.2L187.707 1412.7C190.753 1413.38 193.548 1414.29 196.094 1415.43C198.639 1416.56 200.844 1417.96 202.707 1419.62C204.571 1421.28 206.014 1423.23 207.037 1425.48C208.082 1427.73 208.616 1430.31 208.639 1433.22C208.616 1437.5 207.526 1441.2 205.366 1444.34C203.23 1447.45 200.139 1449.87 196.094 1451.6C192.071 1453.3 187.219 1454.16 181.537 1454.16C175.901 1454.16 170.991 1453.29 166.81 1451.56C162.651 1449.84 159.401 1447.28 157.06 1443.89C154.741 1440.48 153.526 1436.27 153.412 1431.25H167.696C167.855 1433.59 168.526 1435.54 169.707 1437.11C170.912 1438.66 172.514 1439.83 174.514 1440.62C176.537 1441.39 178.821 1441.78 181.366 1441.78C183.866 1441.78 186.037 1441.42 187.878 1440.69C189.741 1439.96 191.185 1438.95 192.207 1437.66C193.23 1436.36 193.741 1434.87 193.741 1433.19C193.741 1431.62 193.276 1430.3 192.344 1429.23C191.435 1428.17 190.094 1427.26 188.321 1426.51C186.571 1425.76 184.423 1425.08 181.878 1424.46L174.276 1422.55C168.389 1421.12 163.741 1418.88 160.332 1415.84C156.923 1412.79 155.23 1408.69 155.253 1403.53C155.23 1399.3 156.355 1395.61 158.628 1392.45C160.923 1389.29 164.071 1386.83 168.071 1385.05C172.071 1383.28 176.616 1382.39 181.707 1382.39C186.889 1382.39 191.412 1383.28 195.276 1385.05C199.162 1386.83 202.185 1389.29 204.344 1392.45C206.503 1395.61 207.616 1399.27 207.685 1403.43H193.537ZM233.33 1383.35V1453.17H218.568V1383.35H233.33ZM291.77 1405.92C291.293 1404.26 290.622 1402.79 289.759 1401.52C288.895 1400.22 287.838 1399.13 286.588 1398.25C285.361 1397.34 283.952 1396.64 282.361 1396.17C280.793 1395.69 279.054 1395.45 277.145 1395.45C273.577 1395.45 270.44 1396.34 267.736 1398.11C265.054 1399.88 262.963 1402.46 261.463 1405.85C259.963 1409.21 259.213 1413.33 259.213 1418.19C259.213 1423.05 259.952 1427.19 261.429 1430.6C262.906 1434.01 264.997 1436.61 267.702 1438.41C270.406 1440.18 273.599 1441.06 277.281 1441.06C280.622 1441.06 283.474 1440.47 285.838 1439.29C288.224 1438.09 290.043 1436.39 291.293 1434.21C292.565 1432.03 293.202 1429.45 293.202 1426.47L296.202 1426.92H278.202V1415.8H307.418V1424.6C307.418 1430.73 306.122 1436.01 303.531 1440.42C300.94 1444.8 297.372 1448.19 292.827 1450.58C288.281 1452.94 283.077 1454.12 277.213 1454.12C270.668 1454.12 264.918 1452.68 259.963 1449.79C255.009 1446.88 251.145 1442.76 248.372 1437.42C245.622 1432.05 244.247 1425.69 244.247 1418.33C244.247 1412.67 245.065 1407.62 246.702 1403.19C248.361 1398.73 250.679 1394.96 253.656 1391.87C256.634 1388.78 260.099 1386.43 264.054 1384.81C268.009 1383.2 272.293 1382.39 276.906 1382.39C280.861 1382.39 284.543 1382.97 287.952 1384.13C291.361 1385.27 294.384 1386.88 297.02 1388.97C299.679 1391.06 301.849 1393.55 303.531 1396.44C305.213 1399.3 306.293 1402.46 306.77 1405.92H291.77ZM376.903 1383.35V1453.17H364.153L333.778 1409.22H333.267V1453.17H318.506V1383.35H331.46L361.597 1427.26H362.21V1383.35H376.903Z" fill="url(#paint3_linear_80_200)"/>
<rect x="1" y="0.5" width="402" height="1510" rx="4.5" stroke="#9747FF" stroke-dasharray="10 5"/>
<defs>
<linearGradient id="paint0_linear_80_200" x1="20.5" y1="92.6666" x2="383.5" y2="92.6666" gradientUnits="userSpaceOnUse">
<stop stop-color="#19EFFD" stop-opacity="0"/>
<stop offset="0.260417" stop-color="#19EFFD" stop-opacity="0"/>
<stop offset="0.9999" stop-color="#19EFFD" stop-opacity="0"/>
<stop offset="1" stop-color="#19EFFD"/>
</linearGradient>
<linearGradient id="paint1_linear_80_200" x1="202" y1="1028.83" x2="202" y2="1144.83" gradientUnits="userSpaceOnUse">
<stop stop-color="#19EFFD"/>
<stop offset="1" stop-color="#19EFFD"/>
</linearGradient>
<linearGradient id="paint2_linear_80_200" x1="20.5" y1="1252.67" x2="383.5" y2="1252.67" gradientUnits="userSpaceOnUse">
<stop stop-color="#19EFFD" stop-opacity="0"/>
<stop offset="0.130208" stop-color="#19EFFD" stop-opacity="0.865567"/>
<stop offset="1" stop-color="#19EFFD"/>
</linearGradient>
<linearGradient id="paint3_linear_80_200" x1="20.5" y1="1418.67" x2="383.5" y2="1418.67" gradientUnits="userSpaceOnUse">
<stop stop-color="#19EFFD" stop-opacity="0"/>
<stop offset="0.260417" stop-color="#19EFFD" stop-opacity="0"/>
<stop offset="0.482374" stop-color="#19EFFD" stop-opacity="0"/>
<stop offset="1" stop-color="#19EFFD"/>
</linearGradient>
</defs>
</svg>
