<svg width="492" height="1511" viewBox="0 0 492 1511" fill="none" xmlns="http://www.w3.org/2000/svg">
<path d="M51.7088 293.5H26.9588V223.682H51.9134C58.9361 223.682 64.9815 225.08 70.0497 227.875C75.1179 230.648 79.0156 234.636 81.7429 239.841C84.4929 245.045 85.8679 251.273 85.8679 258.523C85.8679 265.795 84.4929 272.045 81.7429 277.273C79.0156 282.5 75.0952 286.511 69.9815 289.307C64.8906 292.102 58.7997 293.5 51.7088 293.5ZM41.7202 280.852H51.0952C55.4588 280.852 59.1293 280.08 62.1065 278.534C65.1065 276.966 67.3565 274.545 68.8565 271.273C70.3793 267.977 71.1406 263.727 71.1406 258.523C71.1406 253.364 70.3793 249.148 68.8565 245.875C67.3565 242.602 65.1179 240.193 62.1406 238.648C59.1634 237.102 55.4929 236.33 51.1293 236.33H41.7202V280.852Z" fill="#19EFFD"/>
<path d="M51.7088 459.167H26.9588V389.348H51.9134C58.9361 389.348 64.9815 390.746 70.0497 393.542C75.1179 396.314 79.0156 400.303 81.7429 405.507C84.4929 410.712 85.8679 416.939 85.8679 424.189C85.8679 431.462 84.4929 437.712 81.7429 442.939C79.0156 448.167 75.0952 452.178 69.9815 454.973C64.8906 457.769 58.7997 459.167 51.7088 459.167ZM41.7202 446.519H51.0952C55.4588 446.519 59.1293 445.746 62.1065 444.201C65.1065 442.632 67.3565 440.212 68.8565 436.939C70.3793 433.644 71.1406 429.394 71.1406 424.189C71.1406 419.03 70.3793 414.814 68.8565 411.542C67.3565 408.269 65.1179 405.86 62.1406 404.314C59.1634 402.769 55.4929 401.996 51.1293 401.996H41.7202V446.519ZM96.8026 459.167V389.348H143.848V401.519H111.564V418.155H141.428V430.326H111.564V446.996H143.984V459.167H96.8026Z" fill="#19EFFD"/>
<path d="M51.7088 624.833H26.9588V555.015H51.9134C58.9361 555.015 64.9815 556.413 70.0497 559.208C75.1179 561.981 79.0156 565.97 81.7429 571.174C84.4929 576.379 85.8679 582.606 85.8679 589.856C85.8679 597.129 84.4929 603.379 81.7429 608.606C79.0156 613.833 75.0952 617.845 69.9815 620.64C64.8906 623.436 58.7997 624.833 51.7088 624.833ZM41.7202 612.186H51.0952C55.4588 612.186 59.1293 611.413 62.1065 609.867C65.1065 608.299 67.3565 605.879 68.8565 602.606C70.3793 599.311 71.1406 595.061 71.1406 589.856C71.1406 584.697 70.3793 580.481 68.8565 577.208C67.3565 573.936 65.1179 571.526 62.1406 569.981C59.1634 568.436 55.4929 567.663 51.1293 567.663H41.7202V612.186ZM96.8026 624.833V555.015H143.848V567.186H111.564V583.822H141.428V595.992H111.564V612.663H143.984V624.833H96.8026ZM168.197 555.015L185.072 608.061H185.72L202.629 555.015H218.993L194.925 624.833H175.902L151.8 555.015H168.197Z" fill="#19EFFD"/>
<path d="M51.7088 790.5H26.9588V720.682H51.9134C58.9361 720.682 64.9815 722.08 70.0497 724.875C75.1179 727.648 79.0156 731.636 81.7429 736.841C84.4929 742.045 85.8679 748.273 85.8679 755.523C85.8679 762.795 84.4929 769.045 81.7429 774.273C79.0156 779.5 75.0952 783.511 69.9815 786.307C64.8906 789.102 58.7997 790.5 51.7088 790.5ZM41.7202 777.852H51.0952C55.4588 777.852 59.1293 777.08 62.1065 775.534C65.1065 773.966 67.3565 771.545 68.8565 768.273C70.3793 764.977 71.1406 760.727 71.1406 755.523C71.1406 750.364 70.3793 746.148 68.8565 742.875C67.3565 739.602 65.1179 737.193 62.1406 735.648C59.1634 734.102 55.4929 733.33 51.1293 733.33H41.7202V777.852ZM96.8026 790.5V720.682H143.848V732.852H111.564V749.489H141.428V761.659H111.564V778.33H143.984V790.5H96.8026ZM168.197 720.682L185.072 773.727H185.72L202.629 720.682H218.993L194.925 790.5H175.902L151.8 720.682H168.197ZM227.396 790.5V720.682H274.442V732.852H242.158V749.489H272.021V761.659H242.158V778.33H274.578V790.5H227.396Z" fill="#19EFFD"/>
<path d="M51.3494 956.167H26.5994V886.349H51.554C58.5767 886.349 64.6222 887.746 69.6903 890.542C74.7585 893.314 78.6563 897.303 81.3835 902.508C84.1335 907.712 85.5085 913.939 85.5085 921.189C85.5085 928.462 84.1335 934.712 81.3835 939.939C78.6563 945.167 74.7358 949.178 69.6222 951.974C64.5312 954.769 58.4403 956.167 51.3494 956.167ZM41.3608 943.519H50.7358C55.0994 943.519 58.7699 942.746 61.7472 941.201C64.7472 939.633 66.9972 937.212 68.4972 933.939C70.0199 930.644 70.7812 926.394 70.7812 921.189C70.7812 916.03 70.0199 911.814 68.4972 908.542C66.9972 905.269 64.7585 902.86 61.7812 901.314C58.804 899.769 55.1335 898.996 50.7699 898.996H41.3608V943.519ZM96.4432 956.167V886.349H143.489V898.519H111.205V915.155H141.068V927.326H111.205V943.996H143.625V956.167H96.4432ZM167.838 886.349L184.713 939.394H185.361L202.27 886.349H218.634L194.565 956.167H175.543L151.44 886.349H167.838ZM227.037 956.167V886.349H274.082V898.519H241.798V915.155H271.662V927.326H241.798V943.996H274.219V956.167H227.037ZM285.818 956.167V886.349H300.58V943.996H330.511V956.167H285.818Z" fill="#19EFFD"/>
<path d="M51.7088 1121.83H26.9588V1052.02H51.9134C58.9361 1052.02 64.9815 1053.41 70.0497 1056.21C75.1179 1058.98 79.0156 1062.97 81.7429 1068.17C84.4929 1073.38 85.8679 1079.61 85.8679 1086.86C85.8679 1094.13 84.4929 1100.38 81.7429 1105.61C79.0156 1110.83 75.0952 1114.84 69.9815 1117.64C64.8906 1120.44 58.7997 1121.83 51.7088 1121.83ZM41.7202 1109.19H51.0952C55.4588 1109.19 59.1293 1108.41 62.1065 1106.87C65.1065 1105.3 67.3565 1102.88 68.8565 1099.61C70.3793 1096.31 71.1406 1092.06 71.1406 1086.86C71.1406 1081.7 70.3793 1077.48 68.8565 1074.21C67.3565 1070.94 65.1179 1068.53 62.1406 1066.98C59.1634 1065.44 55.4929 1064.66 51.1293 1064.66H41.7202V1109.19ZM96.8026 1121.83V1052.02H143.848V1064.19H111.564V1080.82H141.428V1092.99H111.564V1109.66H143.984V1121.83H96.8026ZM168.197 1052.02L185.072 1105.06H185.72L202.629 1052.02H218.993L194.925 1121.83H175.902L151.8 1052.02H168.197ZM227.396 1121.83V1052.02H274.442V1064.19H242.158V1080.82H272.021V1092.99H242.158V1109.66H274.578V1121.83H227.396ZM286.178 1121.83V1052.02H300.939V1109.66H330.871V1121.83H286.178ZM402.087 1086.92C402.087 1094.54 400.643 1101.02 397.757 1106.36C394.893 1111.7 390.984 1115.78 386.03 1118.59C381.098 1121.39 375.553 1122.79 369.393 1122.79C363.189 1122.79 357.621 1121.38 352.689 1118.56C347.757 1115.74 343.859 1111.66 340.996 1106.32C338.132 1100.98 336.7 1094.52 336.7 1086.92C336.7 1079.31 338.132 1072.83 340.996 1067.49C343.859 1062.15 347.757 1058.08 352.689 1055.29C357.621 1052.47 363.189 1051.06 369.393 1051.06C375.553 1051.06 381.098 1052.47 386.03 1055.29C390.984 1058.08 394.893 1062.15 397.757 1067.49C400.643 1072.83 402.087 1079.31 402.087 1086.92ZM387.121 1086.92C387.121 1081.99 386.382 1077.83 384.905 1074.45C383.45 1071.06 381.393 1068.49 378.734 1066.74C376.075 1064.99 372.962 1064.12 369.393 1064.12C365.825 1064.12 362.712 1064.99 360.053 1066.74C357.393 1068.49 355.325 1071.06 353.848 1074.45C352.393 1077.83 351.666 1081.99 351.666 1086.92C351.666 1091.86 352.393 1096.02 353.848 1099.4C355.325 1102.79 357.393 1105.36 360.053 1107.11C362.712 1108.86 365.825 1109.73 369.393 1109.73C372.962 1109.73 376.075 1108.86 378.734 1107.11C381.393 1105.36 383.45 1102.79 384.905 1099.4C386.382 1096.02 387.121 1091.86 387.121 1086.92Z" fill="url(#paint0_linear_84_239)"/>
<path d="M51.7088 1287.5H26.9588V1217.68H51.9134C58.9361 1217.68 64.9815 1219.08 70.0497 1221.88C75.1179 1224.65 79.0156 1228.64 81.7429 1233.84C84.4929 1239.05 85.8679 1245.27 85.8679 1252.52C85.8679 1259.8 84.4929 1266.05 81.7429 1271.27C79.0156 1276.5 75.0952 1280.51 69.9815 1283.31C64.8906 1286.1 58.7997 1287.5 51.7088 1287.5ZM41.7202 1274.85H51.0952C55.4588 1274.85 59.1293 1274.08 62.1065 1272.53C65.1065 1270.97 67.3565 1268.55 68.8565 1265.27C70.3793 1261.98 71.1406 1257.73 71.1406 1252.52C71.1406 1247.36 70.3793 1243.15 68.8565 1239.88C67.3565 1236.6 65.1179 1234.19 62.1406 1232.65C59.1634 1231.1 55.4929 1230.33 51.1293 1230.33H41.7202V1274.85ZM96.8026 1287.5V1217.68H143.848V1229.85H111.564V1246.49H141.428V1258.66H111.564V1275.33H143.984V1287.5H96.8026ZM168.197 1217.68L185.072 1270.73H185.72L202.629 1217.68H218.993L194.925 1287.5H175.902L151.8 1217.68H168.197ZM227.396 1287.5V1217.68H274.442V1229.85H242.158V1246.49H272.021V1258.66H242.158V1275.33H274.578V1287.5H227.396ZM286.178 1287.5V1217.68H300.939V1275.33H330.871V1287.5H286.178ZM402.087 1252.59C402.087 1260.2 400.643 1266.68 397.757 1272.02C394.893 1277.36 390.984 1281.44 386.03 1284.26C381.098 1287.06 375.553 1288.45 369.393 1288.45C363.189 1288.45 357.621 1287.05 352.689 1284.23C347.757 1281.41 343.859 1277.33 340.996 1271.99C338.132 1266.65 336.7 1260.18 336.7 1252.59C336.7 1244.98 338.132 1238.5 340.996 1233.16C343.859 1227.82 347.757 1223.75 352.689 1220.95C357.621 1218.14 363.189 1216.73 369.393 1216.73C375.553 1216.73 381.098 1218.14 386.03 1220.95C390.984 1223.75 394.893 1227.82 397.757 1233.16C400.643 1238.5 402.087 1244.98 402.087 1252.59ZM387.121 1252.59C387.121 1247.66 386.382 1243.5 384.905 1240.11C383.45 1236.73 381.393 1234.16 378.734 1232.41C376.075 1230.66 372.962 1229.78 369.393 1229.78C365.825 1229.78 362.712 1230.66 360.053 1232.41C357.393 1234.16 355.325 1236.73 353.848 1240.11C352.393 1243.5 351.666 1247.66 351.666 1252.59C351.666 1257.52 352.393 1261.68 353.848 1265.07C355.325 1268.45 357.393 1271.02 360.053 1272.77C362.712 1274.52 365.825 1275.4 369.393 1275.4C372.962 1275.4 376.075 1274.52 378.734 1272.77C381.393 1271.02 383.45 1268.45 384.905 1265.07C386.382 1261.68 387.121 1257.52 387.121 1252.59ZM413.021 1287.5V1217.68H440.567C445.862 1217.68 450.374 1218.69 454.101 1220.72C457.828 1222.72 460.669 1225.5 462.624 1229.07C464.601 1232.61 465.589 1236.7 465.589 1241.34C465.589 1245.98 464.589 1250.07 462.589 1253.61C460.589 1257.16 457.692 1259.92 453.896 1261.9C450.124 1263.87 445.555 1264.86 440.192 1264.86H422.635V1253.03H437.805C440.646 1253.03 442.987 1252.55 444.828 1251.57C446.692 1250.57 448.078 1249.19 448.987 1247.44C449.919 1245.67 450.385 1243.64 450.385 1241.34C450.385 1239.02 449.919 1237 448.987 1235.27C448.078 1233.52 446.692 1232.17 444.828 1231.22C442.964 1230.24 440.601 1229.75 437.737 1229.75H427.783V1287.5H413.021Z" fill="url(#paint1_linear_84_239)"/>
<path d="M51.7088 1453.17H26.9588V1383.35H51.9134C58.9361 1383.35 64.9815 1384.75 70.0497 1387.54C75.1179 1390.31 79.0156 1394.3 81.7429 1399.51C84.4929 1404.71 85.8679 1410.94 85.8679 1418.19C85.8679 1425.46 84.4929 1431.71 81.7429 1436.94C79.0156 1442.17 75.0952 1446.18 69.9815 1448.97C64.8906 1451.77 58.7997 1453.17 51.7088 1453.17ZM41.7202 1440.52H51.0952C55.4588 1440.52 59.1293 1439.75 62.1065 1438.2C65.1065 1436.63 67.3565 1434.21 68.8565 1430.94C70.3793 1427.64 71.1406 1423.39 71.1406 1418.19C71.1406 1413.03 70.3793 1408.81 68.8565 1405.54C67.3565 1402.27 65.1179 1399.86 62.1406 1398.31C59.1634 1396.77 55.4929 1396 51.1293 1396H41.7202V1440.52ZM96.8026 1453.17V1383.35H143.848V1395.52H111.564V1412.16H141.428V1424.33H111.564V1441H143.984V1453.17H96.8026ZM168.197 1383.35L185.072 1436.39H185.72L202.629 1383.35H218.993L194.925 1453.17H175.902L151.8 1383.35H168.197ZM227.396 1453.17V1383.35H274.442V1395.52H242.158V1412.16H272.021V1424.33H242.158V1441H274.578V1453.17H227.396ZM286.178 1453.17V1383.35H300.939V1441H330.871V1453.17H286.178ZM402.087 1418.26C402.087 1425.87 400.643 1432.35 397.757 1437.69C394.893 1443.03 390.984 1447.11 386.03 1449.93C381.098 1452.72 375.553 1454.12 369.393 1454.12C363.189 1454.12 357.621 1452.71 352.689 1449.89C347.757 1447.08 343.859 1443 340.996 1437.66C338.132 1432.31 336.7 1425.85 336.7 1418.26C336.7 1410.64 338.132 1404.17 340.996 1398.83C343.859 1393.48 347.757 1389.42 352.689 1386.62C357.621 1383.8 363.189 1382.39 369.393 1382.39C375.553 1382.39 381.098 1383.8 386.03 1386.62C390.984 1389.42 394.893 1393.48 397.757 1398.83C400.643 1404.17 402.087 1410.64 402.087 1418.26ZM387.121 1418.26C387.121 1413.33 386.382 1409.17 384.905 1405.78C383.45 1402.39 381.393 1399.83 378.734 1398.08C376.075 1396.33 372.962 1395.45 369.393 1395.45C365.825 1395.45 362.712 1396.33 360.053 1398.08C357.393 1399.83 355.325 1402.39 353.848 1405.78C352.393 1409.17 351.666 1413.33 351.666 1418.26C351.666 1423.19 352.393 1427.35 353.848 1430.73C355.325 1434.12 357.393 1436.69 360.053 1438.44C362.712 1440.19 365.825 1441.06 369.393 1441.06C372.962 1441.06 376.075 1440.19 378.734 1438.44C381.393 1436.69 383.45 1434.12 384.905 1430.73C386.382 1427.35 387.121 1423.19 387.121 1418.26ZM413.021 1453.17V1383.35H440.567C445.862 1383.35 450.374 1384.36 454.101 1386.38C457.828 1388.38 460.669 1391.17 462.624 1394.73C464.601 1398.28 465.589 1402.37 465.589 1407.01C465.589 1411.64 464.589 1415.73 462.589 1419.28C460.589 1422.83 457.692 1425.59 453.896 1427.56C450.124 1429.54 445.555 1430.53 440.192 1430.53H422.635V1418.7H437.805C440.646 1418.7 442.987 1418.21 444.828 1417.23C446.692 1416.23 448.078 1414.86 448.987 1413.11C449.919 1411.34 450.385 1409.3 450.385 1407.01C450.385 1404.69 449.919 1402.67 448.987 1400.94C448.078 1399.19 446.692 1397.84 444.828 1396.88C442.964 1395.91 440.601 1395.42 437.737 1395.42H427.783V1453.17H413.021Z" fill="url(#paint2_linear_84_239)"/>
<rect x="1" y="0.5" width="490" height="1510" rx="4.5" stroke="#9747FF" stroke-dasharray="10 5"/>
<defs>
<linearGradient id="paint0_linear_84_239" x1="245" y1="1028.83" x2="245" y2="1144.83" gradientUnits="userSpaceOnUse">
<stop stop-color="#19EFFD"/>
<stop offset="1" stop-color="#19EFFD"/>
</linearGradient>
<linearGradient id="paint1_linear_84_239" x1="20.5" y1="1252.67" x2="469.5" y2="1252.67" gradientUnits="userSpaceOnUse">
<stop stop-color="#19EFFD" stop-opacity="0"/>
<stop offset="0.130208" stop-color="#19EFFD" stop-opacity="0.865567"/>
<stop offset="1" stop-color="#19EFFD"/>
</linearGradient>
<linearGradient id="paint2_linear_84_239" x1="20.5" y1="1418.67" x2="469.5" y2="1418.67" gradientUnits="userSpaceOnUse">
<stop stop-color="#19EFFD" stop-opacity="0"/>
<stop offset="0.260417" stop-color="#19EFFD" stop-opacity="0"/>
<stop offset="0.482374" stop-color="#19EFFD" stop-opacity="0"/>
<stop offset="1" stop-color="#19EFFD"/>
</linearGradient>
</defs>
</svg>
