<svg width="446" height="3714" viewBox="0 0 446 3714" fill="none" xmlns="http://www.w3.org/2000/svg">
<path d="M102.299 198.123L102.344 198.225M102.344 198.225L102.397 198.343M102.344 198.225L258.358 78.3004M102.344 198.225L102.299 198.259M102.397 198.343L172.449 355.495M102.397 198.343L335.755 192.355M102.397 198.343L102.284 198.345M336.099 192.284L335.988 192.394M335.988 192.394L335.828 192.554M335.988 192.394L432.7 228.333M335.988 192.394L335.875 192.352M335.828 192.554L172.415 355.655M335.828 192.554L432.527 456.59M335.828 192.554L335.755 192.355M432.696 456.846L432.54 456.785M432.54 456.785L432.25 456.673M432.54 456.785L432.311 457.549M432.54 456.785L432.567 456.697M432.25 456.673L172.285 355.76M432.25 456.673L280.847 501.947M432.25 456.673L432.527 456.59M172.285 355.76L172.138 355.703M172.285 355.76L172.399 355.669M172.285 355.76L172.192 355.833M281.168 502.378L280.847 501.947M280.847 501.947L172.192 355.833M280.847 501.947L108.243 553.562M172.192 355.833L172.045 355.635M172.192 355.833L171.823 356.128M281.583 502.28L292.495 616.109M5.16654 664.125L5.73293 664.03M5.73293 664.03L292.226 615.954M5.73293 664.03L108.505 553.821M5.73293 664.03L5.39489 664.393M108.108 553.68L171.823 356.128M171.823 356.128L172.022 355.509M171.823 356.128L59.9354 445.155M108.113 553.777L59.5647 445.092M102.309 198.201L102.299 198.259M102.299 198.259L102.284 198.345M102.299 198.259L102.258 198.291M102.284 198.345L59.9961 445.058M102.284 198.345L102.204 198.348M102.268 198.281L102.258 198.291M102.258 198.291L102.204 198.348M102.258 198.291L102.246 198.3M102.204 198.348L5.39332 299.595M102.204 198.348L102.096 198.35M59.5613 445.083L59.496 444.909M59.496 444.909L5 299.541M59.496 444.909L5.16435 454.469M59.496 444.909L59.7257 444.869M5.38852 454.529L107.385 553.615M432.527 456.59L432.716 456.533M432.527 456.59L432.567 456.697M108.414 553.565L292.363 615.965M432.981 456.789L432.311 457.549M432.311 457.549L292.458 616.218M432.311 457.549L338.871 769.008M338.823 769.246L338.745 768.99M338.745 768.99L292.057 616.161M338.745 768.99L125.735 738.524M338.745 768.99L338.871 769.008M338.823 769.168L338.871 769.008M338.871 769.008L339.038 769.032M432.567 456.697L432.58 456.654M432.567 456.697L432.582 456.74M339.244 769.137L433 930.794M338.994 769.039L339.038 769.032M339.038 769.032L432.751 753.782M339.038 769.032L339.081 769.038M339.218 769.31L181.547 930.967M125.912 738.655L181.586 930.827M125.888 738.777L44.6032 850.205M44.2736 850.257L181.234 931L44.2736 1011.74M5.00536 930.804L44.2004 850.061M5.41605 784.906L44.6111 850.049M5.11452 784.825L125.284 738.659M125.284 738.659L125.565 738.551M125.284 738.659L125.555 738.826M125.284 738.659L5.07462 664.427M125.565 738.551L125.595 738.539M125.565 738.551L125.54 738.569M125.565 738.551L292.12 615.997M335.755 192.355L335.714 192.243M335.755 192.355L335.875 192.352M335.714 192.243L335.708 192.226M335.714 192.243L335.725 192.258M335.714 192.243L258.173 77.9954M335.875 192.352L335.826 192.333M335.875 192.352L335.93 192.35M335.716 192.116L432.59 5.08714M258.094 78.0285L258.173 77.9954M258.173 77.9954L432.69 5M258.173 77.9954L258.117 77.912M257.999 78.1066L258.117 77.912M258.117 77.912L302.316 5.07807M258.117 77.912L208.911 5.4137M208.911 5.4137L208.786 5.23001M208.911 5.4137L209.122 5.28499M208.911 5.4137L208.435 5.70388M101.883 198.112L208.435 5.70388M208.435 5.70388L208.779 5.08341M208.435 5.70388L5.35227 129.571M101.937 198.305L5.06302 129.562M102.299 1663.88L102.344 1663.78M102.344 1663.78L102.397 1663.66M102.344 1663.78L258.358 1783.7M102.344 1663.78L102.299 1663.74M102.397 1663.66L172.449 1506.51M102.397 1663.66L335.755 1669.65M102.397 1663.66L102.284 1663.65M336.099 1669.72L335.988 1669.61M335.988 1669.61L335.828 1669.45M335.988 1669.61L432.7 1633.67M335.988 1669.61L335.875 1669.65M335.828 1669.45L172.415 1506.35M335.828 1669.45L432.527 1405.41M335.828 1669.45L335.755 1669.65M432.696 1405.15L432.54 1405.21M432.54 1405.21L432.25 1405.33M432.54 1405.21L432.311 1404.45M432.54 1405.21L432.567 1405.3M432.25 1405.33L172.285 1506.24M432.25 1405.33L280.847 1360.05M432.25 1405.33L432.527 1405.41M172.285 1506.24L172.138 1506.3M172.285 1506.24L172.399 1506.33M172.285 1506.24L172.192 1506.17M281.168 1359.62L280.847 1360.05M280.847 1360.05L172.192 1506.17M280.847 1360.05L108.243 1308.44M172.192 1506.17L172.045 1506.36M172.192 1506.17L171.823 1505.87M281.583 1359.72L292.495 1245.89M5.16654 1197.87L5.73293 1197.97M5.73293 1197.97L292.226 1246.05M5.73293 1197.97L108.505 1308.18M5.73293 1197.97L5.39489 1197.61M108.108 1308.32L171.823 1505.87M171.823 1505.87L172.022 1506.49M171.823 1505.87L59.9354 1416.84M108.113 1308.22L59.5647 1416.91M102.309 1663.8L102.299 1663.74M102.299 1663.74L102.284 1663.65M102.299 1663.74L102.258 1663.71M102.284 1663.65L59.9961 1416.94M102.284 1663.65L102.204 1663.65M102.268 1663.72L102.258 1663.71M102.258 1663.71L102.204 1663.65M102.258 1663.71L102.246 1663.7M102.204 1663.65L5.39332 1562.41M102.204 1663.65L102.096 1663.65M59.5613 1416.92L59.496 1417.09M59.496 1417.09L5 1562.46M59.496 1417.09L5.16435 1407.53M59.496 1417.09L59.7257 1417.13M5.38852 1407.47L107.385 1308.39M432.527 1405.41L432.716 1405.47M432.527 1405.41L432.567 1405.3M108.414 1308.44L292.363 1246.04M432.981 1405.21L432.311 1404.45M432.311 1404.45L292.458 1245.78M432.311 1404.45L338.871 1092.99M338.823 1092.75L338.745 1093.01M338.745 1093.01L292.057 1245.84M338.745 1093.01L125.735 1123.48M338.745 1093.01L338.871 1092.99M338.823 1092.83L338.871 1092.99M338.871 1092.99L339.038 1092.97M432.567 1405.3L432.58 1405.35M432.567 1405.3L432.582 1405.26M339.244 1092.86L433 931.206M338.994 1092.96L339.038 1092.97M339.038 1092.97L432.751 1108.22M339.038 1092.97L339.081 1092.96M339.218 1092.69L181.547 931.033M125.912 1123.34L181.586 931.173M125.888 1123.22L44.6032 1011.79M5.00536 931.196L44.2004 1011.94M5.41605 1077.09L44.6111 1011.95M5.11452 1077.18L125.284 1123.34M125.284 1123.34L125.565 1123.45M125.284 1123.34L125.555 1123.17M125.284 1123.34L5.07462 1197.57M125.565 1123.45L125.595 1123.46M125.565 1123.45L125.54 1123.43M125.565 1123.45L292.12 1246M335.755 1669.65L335.714 1669.76M335.755 1669.65L335.875 1669.65M335.714 1669.76L335.708 1669.77M335.714 1669.76L335.725 1669.74M335.714 1669.76L258.173 1784M335.875 1669.65L335.826 1669.67M335.875 1669.65L335.93 1669.65M335.716 1669.88L432.59 1856.91M258.094 1783.97L258.173 1784M258.173 1784L432.69 1857L258.173 1930M258.173 1784L258.117 1784.09M257.999 1783.89L258.117 1784.09M258.117 1784.09L302.316 1856.92M258.117 1784.09L208.911 1856.59M208.911 1856.59L208.786 1856.77M208.911 1856.59L209.122 1856.71M208.911 1856.59L208.435 1856.3M101.883 1663.89L208.435 1856.3M208.435 1856.3L208.779 1856.92M208.435 1856.3L5.35227 1732.43M101.937 1663.69L5.06302 1732.44M102.299 2050.12L102.344 2050.22M102.344 2050.22L102.397 2050.34M102.344 2050.22L258.358 1930.3M102.344 2050.22L102.299 2050.26M102.397 2050.34L172.449 2207.49M102.397 2050.34L335.755 2044.35M102.397 2050.34L102.284 2050.35M336.099 2044.28L335.988 2044.39M335.988 2044.39L335.828 2044.55M335.988 2044.39L432.7 2080.33M335.988 2044.39L335.875 2044.35M335.828 2044.55L172.415 2207.66M335.828 2044.55L432.527 2308.59M335.828 2044.55L335.755 2044.35M432.696 2308.85L432.54 2308.79M432.54 2308.79L432.25 2308.67M432.54 2308.79L432.311 2309.55M432.54 2308.79L432.567 2308.7M432.25 2308.67L172.285 2207.76M432.25 2308.67L280.847 2353.95M432.25 2308.67L432.527 2308.59M172.285 2207.76L172.138 2207.7M172.285 2207.76L172.399 2207.67M172.285 2207.76L172.192 2207.83M281.168 2354.38L280.847 2353.95M280.847 2353.95L172.192 2207.83M280.847 2353.95L108.243 2405.56M172.192 2207.83L172.045 2207.64M172.192 2207.83L171.823 2208.13M281.583 2354.28L292.495 2468.11M5.16654 2516.13L5.73293 2516.03M5.73293 2516.03L292.226 2467.95M5.73293 2516.03L108.505 2405.82M5.73293 2516.03L5.39489 2516.39M108.108 2405.68L171.823 2208.13M171.823 2208.13L172.022 2207.51M171.823 2208.13L59.9354 2297.16M108.113 2405.78L59.5647 2297.09M102.309 2050.2L102.299 2050.26M102.299 2050.26L102.284 2050.35M102.299 2050.26L102.258 2050.29M102.284 2050.35L59.9961 2297.06M102.284 2050.35L102.204 2050.35M102.268 2050.28L102.258 2050.29M102.258 2050.29L102.204 2050.35M102.258 2050.29L102.246 2050.3M102.204 2050.35L5.39332 2151.59M102.204 2050.35L102.096 2050.35M59.5613 2297.08L59.496 2296.91M59.496 2296.91L5 2151.54M59.496 2296.91L5.16435 2306.47M59.496 2296.91L59.7257 2296.87M5.38852 2306.53L107.385 2405.61M432.527 2308.59L432.716 2308.53M432.527 2308.59L432.567 2308.7M108.414 2405.56L292.363 2467.96M432.981 2308.79L432.311 2309.55M432.311 2309.55L292.458 2468.22M432.311 2309.55L338.871 2621.01M338.823 2621.25L338.745 2620.99M338.745 2620.99L292.057 2468.16M338.745 2620.99L125.735 2590.52M338.745 2620.99L338.871 2621.01M338.823 2621.17L338.871 2621.01M338.871 2621.01L339.038 2621.03M432.567 2308.7L432.58 2308.65M432.567 2308.7L432.582 2308.74M339.244 2621.14L433 2782.79M338.994 2621.04L339.038 2621.03M339.038 2621.03L432.751 2605.78M339.038 2621.03L339.081 2621.04M339.218 2621.31L181.547 2782.97M125.912 2590.66L181.586 2782.83M125.888 2590.78L44.6032 2702.21M44.2736 2702.26L181.234 2783L44.2736 2863.74M5.00536 2782.8L44.2004 2702.06M5.41605 2636.91L44.6111 2702.05M5.11452 2636.82L125.284 2590.66M125.284 2590.66L125.565 2590.55M125.284 2590.66L125.555 2590.83M125.284 2590.66L5.07462 2516.43M125.565 2590.55L125.595 2590.54M125.565 2590.55L125.54 2590.57M125.565 2590.55L292.12 2468M335.755 2044.35L335.714 2044.24M335.755 2044.35L335.875 2044.35M335.714 2044.24L335.708 2044.23M335.714 2044.24L335.725 2044.26M335.714 2044.24L258.173 1930M335.875 2044.35L335.826 2044.33M335.875 2044.35L335.93 2044.35M335.716 2044.12L432.59 1857.09M258.094 1930.03L258.173 1930M258.173 1930L258.117 1929.91M257.999 1930.11L258.117 1929.91M258.117 1929.91L302.316 1857.08M258.117 1929.91L208.911 1857.41M208.911 1857.41L208.786 1857.23M208.911 1857.41L209.122 1857.29M208.911 1857.41L208.435 1857.7M101.883 2050.11L208.435 1857.7M208.435 1857.7L208.779 1857.08M208.435 1857.7L5.35227 1981.57M101.937 2050.31L5.06302 1981.56M102.299 3515.88L102.344 3515.78M102.344 3515.78L102.397 3515.66M102.344 3515.78L258.358 3635.7M102.344 3515.78L102.299 3515.74M102.397 3515.66L172.449 3358.51M102.397 3515.66L335.755 3521.65M102.397 3515.66L102.284 3515.65M336.099 3521.72L335.988 3521.61M335.988 3521.61L335.828 3521.45M335.988 3521.61L432.7 3485.67M335.988 3521.61L335.875 3521.65M335.828 3521.45L172.415 3358.35M335.828 3521.45L432.527 3257.41M335.828 3521.45L335.755 3521.65M432.696 3257.15L432.54 3257.21M432.54 3257.21L432.25 3257.33M432.54 3257.21L432.311 3256.45M432.54 3257.21L432.567 3257.3M432.25 3257.33L172.285 3358.24M432.25 3257.33L280.847 3212.05M432.25 3257.33L432.527 3257.41M172.285 3358.24L172.138 3358.3M172.285 3358.24L172.399 3358.33M172.285 3358.24L172.192 3358.17M281.168 3211.62L280.847 3212.05M280.847 3212.05L172.192 3358.17M280.847 3212.05L108.243 3160.44M172.192 3358.17L172.045 3358.36M172.192 3358.17L171.823 3357.87M281.583 3211.72L292.495 3097.89M5.16654 3049.87L5.73293 3049.97M5.73293 3049.97L292.226 3098.05M5.73293 3049.97L108.505 3160.18M5.73293 3049.97L5.39489 3049.61M108.108 3160.32L171.823 3357.87M171.823 3357.87L172.022 3358.49M171.823 3357.87L59.9354 3268.84M108.113 3160.22L59.5647 3268.91M102.309 3515.8L102.299 3515.74M102.299 3515.74L102.284 3515.65M102.299 3515.74L102.258 3515.71M102.284 3515.65L59.9961 3268.94M102.284 3515.65L102.204 3515.65M102.268 3515.72L102.258 3515.71M102.258 3515.71L102.204 3515.65M102.258 3515.71L102.246 3515.7M102.204 3515.65L5.39332 3414.41M102.204 3515.65L102.096 3515.65M59.5613 3268.92L59.496 3269.09M59.496 3269.09L5 3414.46M59.496 3269.09L5.16435 3259.53M59.496 3269.09L59.7257 3269.13M5.38852 3259.47L107.385 3160.39M432.527 3257.41L432.716 3257.47M432.527 3257.41L432.567 3257.3M108.414 3160.44L292.363 3098.04M432.981 3257.21L432.311 3256.45M432.311 3256.45L292.458 3097.78M432.311 3256.45L338.871 2944.99M338.823 2944.75L338.745 2945.01M338.745 2945.01L292.057 3097.84M338.745 2945.01L125.735 2975.48M338.745 2945.01L338.871 2944.99M338.823 2944.83L338.871 2944.99M338.871 2944.99L339.038 2944.97M432.567 3257.3L432.58 3257.35M432.567 3257.3L432.582 3257.26M339.244 2944.86L433 2783.21M338.994 2944.96L339.038 2944.97M339.038 2944.97L432.751 2960.22M339.038 2944.97L339.081 2944.96M339.218 2944.69L181.547 2783.03M125.912 2975.34L181.586 2783.17M125.888 2975.22L44.6032 2863.79M5.00536 2783.2L44.2004 2863.94M5.41605 2929.09L44.6111 2863.95M5.11452 2929.18L125.284 2975.34M125.284 2975.34L125.565 2975.45M125.284 2975.34L125.555 2975.17M125.284 2975.34L5.07462 3049.57M125.565 2975.45L125.595 2975.46M125.565 2975.45L125.54 2975.43M125.565 2975.45L292.12 3098M335.755 3521.65L335.714 3521.76M335.755 3521.65L335.875 3521.65M335.714 3521.76L335.708 3521.77M335.714 3521.76L335.725 3521.74M335.714 3521.76L258.173 3636M335.875 3521.65L335.826 3521.67M335.875 3521.65L335.93 3521.65M335.716 3521.88L432.59 3708.91M258.094 3635.97L258.173 3636M258.173 3636L432.69 3709M258.173 3636L258.117 3636.09M257.999 3635.89L258.117 3636.09M258.117 3636.09L302.316 3708.92M258.117 3636.09L208.911 3708.59M208.911 3708.59L208.786 3708.77M208.911 3708.59L209.122 3708.71M208.911 3708.59L208.435 3708.3M101.883 3515.89L208.435 3708.3M208.435 3708.3L208.779 3708.92M208.435 3708.3L5.35227 3584.43M101.937 3515.69L5.06302 3584.44" stroke="#19EFFD" stroke-opacity="0.8" stroke-width="10"/>
</svg>
