<svg width="2041" height="5412" viewBox="0 0 2041 5412" fill="none" xmlns="http://www.w3.org/2000/svg">
<path d="M466.715 1131.62L799.601 2049.68M1576.17 1097.56L799.438 2050.61M2034.56 2640.93L798.125 2050.9M1315.51 2906.55L797.684 2050.5M1317.48 2905.98L1369.26 3570.02M5.79027 3850.13L1367.98 3569.12M494.279 3205.83L797.576 2049.76M494.306 3206.4L263.927 2572.36M799.361 2050.7L265.686 2572.73M466.763 1132.08L265.974 2572.17M466.566 1132.54L6.86644 1723.58M263.911 2572.31L5 1723.26M5.77988 2627.06L264.691 2571.06M6.84363 2627.42L490.849 3205.45M494.922 3205.14L2034.65 2639.11M495.731 3205.16L1368.63 3569.18M2035.91 2640.6L1369.08 3570.66M1589.1 4463.38L1367.18 3570.32M1589.1 4462.92L2034.01 2639.81M1591.1 4462.74L2036 5405.8M1589.91 4462.17L2034.82 4373.17M1590.98 4463.75L842.774 5406.81M578.765 4284.92L842.961 5405.99M578.655 4285.63L192.93 4935.67M841.287 5407L191.366 4935.97M5.02543 5405.86L191.019 4934.83M6.97428 4554.73L192.968 4934.76M5.54345 4554.26L577.262 4284.24M577.927 4284.16L1590.32 4462.17M577.004 4284.42L1367.48 3569.37M577.073 4285.92L5.35408 3851.89M496.163 3206.66L6.87387 3851.7M2034.02 2640.31L1574.32 1097.22M2034.58 1307.86L1574.88 1097.85M1575.37 1097.94L465.75 1132.95M1574.35 1096.57L2034.05 5.50833M1206.01 431.026L2034.53 5M1207.27 432.612L466.462 1132.65M1205.56 431.481L1415.86 5.45541M1574.4 1097.41L972.033 6.3418M464.743 1131.55L971.998 5.48656M464.999 1132.68L5.29907 731.658M973.626 6.66252L6.67165 731.707" stroke="#19EFFD" stroke-opacity="0.5" stroke-width="10"/>
</svg>
