<svg width="438" height="3412" viewBox="0 0 438 3412" fill="none" xmlns="http://www.w3.org/2000/svg">
<path d="M102.299 242.417L172.449 435.883M336.098 235.239L172.415 436.079M432.697 560.479L172.138 436.14M281.169 616.454L172.045 436.056M281.584 616.334L292.495 756.27M5.16654 815.298L292.226 756.08M108.108 679.523L172.022 435.9M108.113 679.643L59.5646 546.029M172.399 436.098L59.9353 546.107M102.309 242.514L59.996 545.989M102.267 242.611L5.39332 367.163M59.5613 546.019L5 367.095M5.16435 557.556L59.7256 545.755M5.38851 557.632L107.385 679.442M108.243 679.377L432.716 560.096M108.414 679.381L292.363 756.093M432.981 560.41L292.458 756.404M338.823 944.531L292.057 756.333M338.823 944.434L432.581 560.243M339.245 944.396L433 1143.13M338.994 944.276L432.751 925.52M339.219 944.609L181.547 1143.34M125.912 906.923L181.587 1143.17M125.888 907.073L44.6032 1044.06M181.234 1143.38L44.2736 1044.12M5.00536 1143.14L44.2005 1043.88M5.41605 963.781L44.6112 1043.87M5.11452 963.682L125.595 906.78M125.735 906.763L339.08 944.276M125.54 906.818L292.12 756.133M125.555 907.134L5.07462 815.669M108.505 679.697L5.39489 815.629M432.583 560.348L335.708 235.167M432.701 279.556L335.827 235.3M335.93 235.319L102.096 242.697M335.715 235.03L432.589 5.10712M258.093 94.778L432.69 5M258.359 95.1122L102.246 242.634M257.998 94.8739L302.316 5.09597M335.725 235.208L208.786 5.28276M101.883 242.402L208.779 5.10253M101.937 242.64L5.06302 158.131M209.122 5.35035L5.35227 158.142M102.299 2036.97L172.449 1843.5M336.098 2044.14L172.415 1843.3M432.697 1718.9L172.138 1843.24M281.169 1662.93L172.045 1843.33M281.584 1663.05L292.495 1523.11M5.16654 1464.08L292.226 1523.3M108.108 1599.86L172.022 1843.48M108.113 1599.74L59.5646 1733.35M172.399 1843.29L59.9353 1733.28M102.309 2036.87L59.996 1733.39M102.267 2036.77L5.39332 1912.22M59.5613 1733.36L5 1912.29M5.16435 1721.83L59.7256 1733.63M5.38851 1721.75L107.385 1599.94M108.243 1600.01L432.716 1719.29M108.414 1600L292.363 1523.29M432.981 1718.97L292.458 1522.98M338.823 1334.85L292.057 1523.05M338.823 1334.95L432.581 1719.14M339.245 1334.99L433 1136.25M338.994 1335.11L432.751 1353.86M339.219 1334.77L181.547 1136.04M125.912 1372.46L181.587 1136.21M125.888 1372.31L44.6032 1235.33M181.234 1136L44.2736 1235.26M5.00536 1136.24L44.2005 1235.5M5.41605 1315.6L44.6112 1235.52M5.11452 1315.7L125.595 1372.6M125.735 1372.62L339.08 1335.11M125.54 1372.57L292.12 1523.25M125.555 1372.25L5.07462 1463.71M108.505 1599.69L5.39489 1463.75M432.583 1719.03L335.708 2044.22M432.701 1999.83L335.827 2044.08M335.93 2044.06L102.096 2036.69M335.715 2044.35L432.589 2274.28M258.093 2184.6L432.69 2274.38M258.359 2184.27L102.246 2036.75M257.998 2184.51L302.316 2274.29M335.725 2044.18L208.786 2274.1M101.883 2036.98L208.779 2274.28M101.937 2036.74L5.06302 2121.25M209.122 2274.03L5.35227 2121.24M102.299 2506.42L172.449 2699.88M336.098 2499.24L172.415 2700.08M432.697 2824.48L172.138 2700.14M281.169 2880.45L172.045 2700.06M281.584 2880.33L292.495 3020.27M5.16654 3079.3L292.226 3020.08M108.108 2943.52L172.022 2699.9M108.113 2943.64L59.5646 2810.03M172.399 2700.1L59.9353 2810.11M102.309 2506.51L59.996 2809.99M102.267 2506.61L5.39332 2631.16M59.5613 2810.02L5 2631.1M5.16435 2821.56L59.7256 2809.76M5.38851 2821.63L107.385 2943.44M108.243 2943.38L432.716 2824.1M108.414 2943.38L292.363 3020.09M432.981 2824.41L292.458 3020.4M338.823 3208.53L292.057 3020.33M338.823 3208.43L432.581 2824.24M339.245 3208.4L433 3407.13M338.994 3208.28L432.751 3189.52M339.219 3208.61L181.547 3407.34M125.912 3170.92L181.587 3407.17M125.888 3171.07L44.6032 3308.06M181.234 3407.38L44.2736 3308.12M5.00536 3407.14L44.2005 3307.88M5.41605 3227.78L44.6112 3307.87M5.11452 3227.68L125.595 3170.78M125.735 3170.76L339.08 3208.28M125.54 3170.82L292.12 3020.13M125.555 3171.13L5.07462 3079.67M108.505 2943.7L5.39489 3079.63M432.583 2824.35L335.708 2499.17M432.701 2543.56L335.827 2499.3M335.93 2499.32L102.096 2506.7M335.715 2499.03L432.589 2269.11M258.093 2358.78L432.69 2269M258.359 2359.11L102.246 2506.63M257.998 2358.87L302.316 2269.1M335.725 2499.21L208.786 2269.28M101.883 2506.4L208.779 2269.1M101.937 2506.64L5.06302 2422.13M209.122 2269.35L5.35227 2422.14" stroke="#19EFFD" stroke-opacity="0.5" stroke-width="10"/>
</svg>
